<svg version="1.1" xmlns="http://www.w3.org/2000/svg" viewBox="0 0 1022.5000000000001 687.5" width="2045.0000000000002" height="1375">
  <!-- svg-source:excalidraw -->
  
  <defs>
    <style class="style-fonts">
      @font-face {
        font-family: "Virgil";
        src: url("https://excalidraw.com/Virgil.woff2");
      }
      @font-face {
        font-family: "Cascadia";
        src: url("https://excalidraw.com/Cascadia.woff2");
      }
    </style>
  </defs>
  <g stroke-linecap="round" transform="translate(10 10) rotate(0 501.25000000000006 333.75)"><path d="M0 0 C0 0, 0 0, 0 0 M0 0 C0 0, 0 0, 0 0 M1.61 12.79 C2.44 9.01, 8.54 2.15, 10.56 -1.49 M0.75 11.96 C4.38 7.77, 6.64 3.83, 9.93 0.14 M0.67 24.01 C6.91 16.09, 15 7.43, 20.78 -2 M0.42 24.83 C8.2 16.65, 15.02 7.82, 20.57 -0.41 M-0.98 35.36 C10.96 22.51, 25.56 6.42, 33.76 1.83 M-0.14 36.94 C6.12 29.62, 12.64 21.22, 31.95 -0.48 M-2.05 49.64 C10.67 36.06, 21.61 24.9, 42.41 1.41 M-0.15 49.22 C15.18 31.27, 30.53 13.23, 41.58 0.79 M0.18 62.17 C18.51 38.77, 36.14 16.06, 54.64 -1.25 M-0.93 61 C12.76 45.72, 26 29.39, 52.16 -0.09 M0.57 73.26 C15.5 53.51, 30.5 37.64, 63.02 -0.58 M-0.4 72.74 C22.82 47.31, 42.54 23.37, 62.97 -0.12 M-0.87 86.28 C19.88 62.96, 38.75 38.33, 72.43 -0.12 M-0.1 85.67 C25.12 57.45, 48.91 29.34, 74.61 0.07 M0.06 99.74 C30.81 62.36, 62.25 24.49, 85.8 0.77 M-1.2 98.41 C31.86 59.22, 64.88 22.05, 84.61 -0.94 M0.06 109.57 C24.34 80.87, 49.13 52.22, 95.79 -1.75 M-0.23 110.74 C21.04 87.02, 39.23 65.5, 96.07 0.46 M0.07 120.97 C24.67 94.51, 47.1 65.58, 106.44 1.26 M-0.31 122.01 C24.07 92.26, 49.31 63.32, 105.38 -0.22 M1.58 134.69 C37.15 91, 78.84 42.38, 116.23 -0.34 M1.07 134.95 C35.28 92.2, 70.74 52.8, 116.14 1.02 M1.7 147.13 C43.03 96.96, 80.91 51.97, 126.41 -1.54 M0.08 146.27 C30.35 112.98, 61.25 78.01, 127.52 0.48 M-1.66 160.17 C34.73 118.39, 74.61 76.45, 136.8 1.54 M-0.42 158.35 C48.43 104.14, 94.98 50.27, 136.99 1.06 M-0.39 170.49 C55.92 106.79, 113.91 41.5, 149.43 -1.06 M0.22 171.58 C56.53 105.42, 114.19 40.22, 148.26 0.52 M-0.58 181.53 C39.33 140.37, 77.44 92.93, 157.83 0.23 M0.55 182.98 C44.61 131.86, 89.36 80.69, 158.18 -0.54 M1.39 196.47 C37.52 155.6, 74.87 113.79, 168.73 -0.24 M0.1 195.19 C45.59 144.44, 89.57 93.69, 169.02 -0.01 M-0.64 207.32 C42.39 158.2, 84.82 109.43, 181.24 0.35 M-0.06 207.6 C69.71 125.62, 138.59 46.53, 180.29 0.68 M-0.85 221.02 C49.5 165.21, 96.76 107.74, 189.21 0.92 M-0.66 220.43 C57.93 153.71, 116.85 85.6, 190.46 0.76 M0.01 231.87 C50.15 176.38, 99.64 117.86, 202.24 -0.42 M-0.33 232.37 C73.3 148.97, 146.51 64.1, 201.93 -0.07 M0.23 244.11 C45.76 192.62, 88.6 139.44, 210.67 0.21 M-0.38 243.47 C74.04 157.26, 148.46 71.43, 211.75 0.23 M0.8 254.95 C52.48 195.64, 102.88 136.21, 223.64 0.27 M0.29 255.53 C51.98 196.84, 104.37 136.71, 222.4 0.19 M1.56 268.97 C50.92 209.41, 103.59 148.34, 233.24 0.56 M0.87 268.4 C67.83 189.78, 136.86 110.41, 232.88 -0.15 M-0.65 280.93 C52.6 221.56, 107.18 160.64, 244.71 -0.83 M-0.7 280.42 C57.64 213.12, 117.34 144.89, 243.43 0.38 M0.38 293.36 C78.47 202.24, 156.77 113.21, 253.65 -0.04 M0.16 292.82 C51.91 235.71, 102.82 176.78, 253.91 -0.35 M-0.06 304.05 C95.11 197.1, 189.75 88.4, 265.79 -0.33 M0.59 304.7 C96.86 193.17, 193.19 82.49, 265.39 -0.43 M-0.42 316.96 C81.85 220.08, 166.21 125.78, 276.42 0.83 M-0.3 317.23 C59.76 247.63, 118.7 179.5, 275.41 0.31 M0.06 327.87 C79.03 238.44, 155.7 150.33, 286.82 -0.01 M0.63 329.15 C111.32 202.82, 222.64 76, 286.21 -0.42 M0.62 342.12 C96.2 229.97, 193.58 120.33, 297.93 -0.59 M-0.46 341.89 C76.59 254.01, 152.44 166.5, 296.77 -0.57 M0.79 353.63 C102.18 237.24, 202.41 122.03, 308.45 -0.14 M-0.34 353.72 C68.95 272.3, 138.84 190.93, 307.51 -0.35 M0.21 365.25 C99.16 252.18, 197.91 138.12, 317.84 -0.14 M0.34 366.15 C98.91 249.49, 199.58 134.22, 318.06 -0.46 M-0.2 378.02 C112.67 248.99, 224.68 118.9, 329.23 -0.84 M0.02 377.74 C76.5 291.77, 151.05 205.43, 328.54 -0.43 M0.81 390.48 C100.53 275.92, 199.38 162.48, 340.02 -1.03 M0.03 390.02 C120.24 251.5, 240.59 112.84, 339.3 -0.03 M0.31 403.32 C100.41 286.54, 203.06 168.75, 349.61 0.8 M-0.47 402.6 C86.86 302.62, 173.99 202.32, 349.8 0.62 M0.04 414.32 C109.49 290.34, 219.14 164.07, 359.32 0.86 M0.1 414.32 C77.23 327.55, 153.61 238.78, 360.26 0.01 M-0.09 426.66 C146.73 258.46, 292.52 90.44, 371.53 0.64 M0.05 426.42 C141.44 265.01, 282.01 102.82, 370.4 0.49 M0.56 439.21 C106.59 314.13, 213.98 190.88, 381.78 -0.32 M0.5 438.66 C114.62 307.19, 229.48 175.01, 381.11 -0.03 M-0.56 451.77 C86.83 352.76, 173.48 252.52, 392.42 0.8 M-0.04 451.22 C90.35 349.03, 180.34 245.17, 391.67 -0.16 M-0.2 463.39 C145.19 298.46, 289.77 132.46, 402.04 -0.53 M-0.41 463.96 C122.92 320.92, 245.52 180.22, 402.83 0.49 M-0.64 475.79 C83.32 380.96, 167.78 285.6, 413.38 -0.5 M-0.09 475.72 C94.14 364.66, 190.22 254.96, 413.02 0.45 M0.83 486.9 C161.77 303, 322.05 117.71, 424.39 0.75 M-0.26 487.63 C117.91 351.59, 235.88 215.85, 423.87 -0.05 M0.74 500.12 C134.99 342.76, 270.77 186.94, 434.49 0.52 M0.15 499.38 C150.29 327.17, 299.95 154.55, 434.83 0.01 M-0.15 512 C169.32 317.22, 336.96 124.47, 445.28 0.42 M-0.68 512.37 C158.11 328.44, 317.19 145.78, 445.48 0.43 M0.04 524.17 C175.12 324.13, 348.03 126.01, 455.59 -0.29 M-0.23 524.55 C159.09 341.74, 317.23 159.41, 455.72 -0.31 M0.29 536.36 C138.56 375.1, 280.09 213.47, 466.98 0.62 M-0.08 536.58 C114.34 404.71, 228.02 274.25, 466.52 0.1 M-0.1 548.73 C183.66 336.32, 365.97 125.19, 477.16 0.09 M-0.2 548.23 C163.9 359.08, 328.29 169.96, 476.91 -0.24 M0.99 560.72 C142.34 400.61, 284.08 238, 487.13 -0.12 M0.58 560.8 C154.7 383.68, 307.95 206.87, 487.87 0.04 M0.47 573.98 C179.12 365.9, 359.76 159.48, 497.82 -0.1 M-0.13 573.32 C133.06 423.68, 264.38 272.18, 498.61 -0.02 M0.58 585.83 C194.87 356.45, 393.32 130.17, 509.16 0.35 M0.14 585.89 C167.81 395.58, 333.35 204.64, 508.79 -0.21 M-0.83 597.53 C149.32 424.63, 297.96 252.45, 519.99 -0.19 M-0.14 597.39 C183.07 384.59, 367.3 172.37, 519.64 0.01 M0.26 609.38 C128.75 459.74, 258.18 310.66, 530.3 -1 M0.41 609.52 C160.91 426.97, 319.85 244.18, 530.57 -0.58 M-0.39 622.03 C111.09 495.25, 218.61 370.16, 541.1 0.49 M0.45 621.56 C159.87 437.01, 318.98 255.11, 541.05 -0.2 M-0.03 633.71 C113.78 501.87, 227.4 370.6, 551.94 -0.38 M-0.42 634.26 C128.46 485.06, 258.37 335.56, 551.28 -0.14 M-0.02 645.78 C164.19 462.29, 326.21 275.62, 562.34 0.22 M-0.04 646.28 C154.7 468.39, 309.8 289.16, 562.46 -0.01 M-0.32 658.95 C126.15 515.41, 252.46 367.99, 572.49 -0.83 M0.28 658.77 C119.81 522.66, 236.56 388.11, 572.63 -0.63 M1.95 669.29 C227.09 408.58, 451 149.96, 582.45 -0.35 M1.16 668.69 C189.12 448.85, 378.46 231.55, 582.67 0.68 M12.17 669.1 C213.2 438.77, 411.72 209.41, 593.87 0.64 M12.39 669.1 C160.26 500.83, 306.27 332.12, 593.25 0.22 M23.27 669.75 C189.43 477.82, 356.64 286.2, 604.31 -0.41 M22.76 668.67 C246.52 411.09, 470.26 153.41, 604.25 0.39 M33.85 669.65 C163.96 519.52, 294.53 369.76, 615.36 -0.49 M33 668.61 C204.09 471.41, 377.38 272.05, 614.95 0.55 M44.48 668.54 C178.46 515.22, 309.93 362.2, 625.43 -0.1 M44.04 668.81 C172.91 519.66, 301.8 370.37, 625.19 0.19 M54.35 668.83 C182.54 525.1, 306.94 380.56, 635.26 0.38 M54.86 668.53 C190.28 514.48, 325.65 358.48, 636.01 0.02 M65.18 668.07 C184.73 531.77, 302.63 396.91, 646.16 0.52 M65.59 669.17 C258.4 445.95, 450.43 224.94, 646.75 0.31 M76.27 668.33 C234.12 485.51, 395.84 300.9, 657.52 0.28 M76.12 668.59 C207.57 518.32, 338.4 367.21, 657.32 0.45 M86.78 668.7 C232.71 497.26, 382.82 326.77, 668.24 -0.2 M86.81 668.67 C217.84 517.16, 347.18 367.89, 667.61 0.47 M97.19 668.24 C249.23 493.56, 402.2 318.08, 679.06 -0.13 M97.12 668.83 C220.32 527.98, 343.46 386.46, 678.22 -0.24 M108.44 668.05 C329.38 411.33, 551.7 154.85, 689.19 0.1 M107.89 668.77 C305.02 443.92, 502.63 216.93, 689.05 0.26 M118.5 667.87 C257.22 511.85, 391.41 355.63, 700.21 -0.59 M118.4 668.39 C238.99 529.73, 358.07 391.99, 699.23 0.34 M129.54 668.13 C261.23 516.71, 394.29 363.12, 709.53 0.58 M128.63 668.98 C324.67 438.79, 522.66 211.13, 710.54 -0.42 M139.75 668.15 C343.34 436.55, 547.37 203.94, 720.68 -0.43 M139.53 668.29 C367.51 406.17, 595.92 144.1, 720.89 -0.11 M150.43 668.18 C379.6 403.54, 610.74 137.87, 731.96 -0.36 M150.46 668.93 C274.07 528.45, 396.73 386.87, 731.78 -0.16 M161.09 669.2 C378.74 421.02, 594.29 173.41, 741.95 -0.94 M161.07 668.65 C296.24 514.42, 431.44 358.88, 741.74 -0.19 M171.67 668.61 C364.22 446.22, 557.64 223.57, 752.56 0.46 M171.17 668.73 C379.7 426.71, 589.42 184.67, 753.05 -0.48 M181.81 668.73 C395.08 423.58, 608.82 178.67, 763.31 0.16 M181.13 669.04 C392.23 426.64, 601.04 186.68, 763.54 -0.03 M192.52 669.46 C332.75 506.96, 474.94 344.57, 774.42 -0.94 M191.95 669.35 C379.49 451.16, 567.26 234.95, 774.07 -0.61 M202.14 669.39 C434.59 404.64, 666 139.01, 784.24 0 M202.4 669.05 C365.37 481.88, 526.61 295.98, 784.42 -0.04 M212.82 669.67 C430.36 418.72, 650.48 164.75, 795.59 -0.54 M213.13 669.19 C361.31 502.43, 506.63 334.45, 795.13 -0.26 M223.35 669.7 C358.29 518.11, 490.3 364.13, 805.18 -0.7 M223.82 669.23 C379.77 489.32, 535.25 310.59, 805.76 -0.55 M234.62 669.27 C433.41 440.14, 631.54 210.1, 815.66 0.85 M234.69 668.98 C363.18 517.62, 493.94 367.89, 816.1 0.69 M244.72 668.25 C380.03 513.21, 513.94 358.03, 826.12 0.77 M245.16 669.3 C408.69 482.89, 572.66 294.26, 826.27 0.15 M256.01 668.75 C484.32 404.13, 714.63 140.61, 837.6 0.16 M256.08 669.24 C458.31 436.49, 658.79 205.41, 837.01 0.4 M266.96 668.43 C427.87 486.34, 589.28 301.41, 848.42 0.43 M266.82 669.22 C412.21 503.48, 557.09 337.45, 847.42 0.03 M277.68 669.02 C473.55 443.67, 672.03 215.17, 858.17 0.6 M277.54 668.93 C415.47 507.93, 555.86 346.48, 858.53 -0.04 M288.14 669.66 C421.7 513.11, 556.71 356.37, 868.42 -0.59 M287.81 668.88 C498.66 421.73, 712.45 175.9, 869.15 0.58 M298.89 669 C439.91 509.92, 580.83 346.74, 879.38 -0.14 M298.12 669.14 C509.13 428.26, 717.74 188.17, 879.39 0.04 M309.31 668.15 C470.33 484.18, 629.36 301.02, 890.54 0.1 M309.33 668.47 C432.47 529.23, 555.31 388.47, 890.44 0.26 M319.9 668 C497.43 461.24, 677.03 253.72, 900.63 -0.4 M319.29 668.64 C478.87 485.48, 638.01 303.16, 900.92 0.38 M330.53 668.93 C547.81 416.89, 765.85 166.05, 911.38 -0.33 M330.39 668.84 C460.89 515.35, 593.38 363.17, 911.48 0.4 M341.15 668.17 C460.29 534.38, 580 396.08, 922.71 -0.07 M341.32 668.3 C561.28 416.76, 781.69 162.91, 921.89 0.22 M351.64 669.06 C472.96 526.4, 596.52 385.52, 933.31 0.53 M351.42 668.75 C490.31 511.49, 627.52 353.97, 932.47 0.04 M362.48 668.86 C559.71 437.81, 760.19 207.3, 943.79 0.17 M362.08 668.28 C591.92 404.73, 822.53 139.36, 943.62 0.28 M373.06 667.99 C523.96 493.42, 675.79 319.46, 954.11 -0.1 M373.04 668.48 C565.72 448, 757.51 226.4, 954.02 0.31 M383.91 669.04 C610.81 404.63, 838.95 142.38, 965.05 -0.39 M383.84 668.42 C538.59 487.87, 694.57 308.64, 964.9 0 M393.41 668.4 C569.91 464.27, 746.59 260.13, 975.72 0.2 M394.08 668.56 C616.01 415.21, 836.74 160.83, 975.13 0.04 M404.19 668.83 C616.57 421.54, 830.44 175.75, 986.63 0.02 M404.23 669.44 C554.97 493.68, 707.32 318.05, 986.26 -0.51 M414.43 669.72 C599.1 453.81, 785.64 240.93, 997.11 0.27 M414.53 669.4 C600.53 454.32, 788.55 237.75, 996.82 0.12 M425.82 668.93 C620.35 442.49, 816.59 217.45, 1004.89 2.18 M425.67 669.46 C577.55 488.49, 732.18 310.94, 1005.33 2.22 M436.42 669.14 C660.52 412.07, 884.05 155.88, 1005.06 14.47 M436.14 669.42 C591.93 490.86, 748.34 310.35, 1004.59 15.08 M447.12 669.48 C627.41 463.15, 807.64 254.46, 1004.26 27.44 M446.19 668.97 C612.71 479.8, 778.42 289.66, 1004.96 26.49 M456.7 668.52 C566.55 539.87, 679.16 410.93, 1004.97 38.81 M457.31 669.21 C577 528.25, 699.39 387.47, 1005.13 38.78 M467.28 669.51 C681.93 424.18, 896.52 177.21, 1005.38 50.18 M468.1 669 C674.27 431.19, 882.01 192.68, 1005.08 51.1 M477.83 668.98 C659.36 463.35, 839.43 257.17, 1005.79 63.52 M478.5 668.89 C649.85 469.21, 822.68 269.94, 1005.33 62.95 M489.64 668.43 C690.31 441.29, 888.57 211.16, 1004.64 75.28 M488.9 669.07 C643.63 494.78, 797.07 318.38, 1004.95 75.64 M499.77 669.26 C694.33 442.73, 891.62 216.88, 1004.98 88.25 M499.57 669.29 C614.06 538.63, 727.52 407.59, 1004.79 88.04 M509.75 668.5 C689.32 463.26, 868.29 257.73, 1005.64 99.84 M510.52 669.2 C618.3 547.43, 724.33 425.49, 1004.68 100.21 M520.65 668.11 C638.04 535.8, 754.23 402.04, 1004.52 112.38 M520.99 669.12 C678.26 488.77, 834.08 309.91, 1005.07 111.53 M532.15 669.15 C699.44 478.62, 866.21 287.53, 1005.8 124.01 M531.68 668.71 C647.04 538.47, 762.29 405.83, 1005.03 123.83 M542.4 668.28 C718.05 467.15, 894.08 265.71, 1003.98 136.34 M542.63 668.57 C680.62 510.7, 818.64 352.19, 1004.7 136.81 M553.54 669.46 C659.39 547.76, 765.31 427.18, 1005.53 147.98 M553.1 668.98 C696.89 506.68, 839.43 343.93, 1004.94 149.03 M563.53 669.34 C653.11 564.45, 743.85 462.05, 1004.91 161.16 M563.38 668.97 C657.17 563.43, 750.25 456.13, 1004.87 161.14 M574.84 668.91 C678.45 549.52, 782.04 431.33, 1004.59 172.06 M573.92 668.32 C696.78 529.53, 818.53 389.74, 1005.54 172.78 M584.74 668.48 C711.21 522.79, 838.61 375.86, 1005.52 184.91 M584.74 668.29 C748.47 482.49, 911.2 295.54, 1005.17 184.53 M595.55 668.18 C698.74 551.24, 799.77 435.03, 1004.71 198.02 M595.29 668.72 C688.44 561.92, 780.64 456.12, 1005.14 197.75 M606.52 669.29 C755.54 496.01, 905 325.42, 1004.97 209.32 M606.38 668.82 C738.65 519.4, 869.33 368.06, 1005.24 209.51 M616.13 668.38 C731.35 536.5, 845.68 404.36, 1004.42 222.2 M616.75 668.27 C748.21 514.38, 881.63 361.75, 1004.87 221.88 M626.75 668.19 C743.42 532.5, 862.08 397.02, 1004.6 233.43 M627.42 668.76 C708.91 578.13, 788.46 486.5, 1005.46 233.62 M636.62 669.37 C735.16 558.46, 832.73 445.62, 1004.89 246.43 M637.61 669.49 C733.25 557.76, 828.17 448.58, 1005.31 245.68 M647.22 668.75 C759.39 539.11, 870.59 409.97, 1004.11 258.14 M647.7 668.92 C783.84 512.74, 919.52 355.93, 1004.4 258.3 M658.37 669.18 C794.95 512.99, 931.09 355.22, 1004.65 270.15 M658.32 669.56 C769 540.41, 880.62 411.42, 1004.84 270.34 M669.12 669.89 C797.2 523.17, 925.78 376, 1004.39 282.53 M669.25 669.36 C758.09 566.13, 846.26 464.23, 1005.26 282.51 M679.37 669.3 C799.49 532.94, 919.66 396.29, 1005.61 295.35 M679.41 669.19 C778.6 555.49, 877.89 441.56, 1005.23 295.11 M689.75 669.66 C759.62 592.3, 825.5 514.87, 1005.38 306.73 M690.34 668.69 C769.84 578.43, 849.21 486.61, 1005.3 306.71 M700.84 669.32 C770.74 591.68, 840.18 511.65, 1004.36 319.86 M701.29 669.26 C791.76 564.54, 882.85 459.63, 1005.04 319.72 M710.99 669.22 C804.34 561.44, 898.54 455.12, 1005.72 332.27 M711.7 668.67 C773.85 596.02, 837.27 523.74, 1004.48 331.98 M722.77 668.1 C798.41 584.76, 872.36 498.52, 1004.93 343.08 M722.2 668.56 C784.42 595.58, 847.91 522.03, 1005.17 343.52 M733.11 668.03 C810.84 578.57, 889.55 487.85, 1004.74 354.87 M733.08 669.09 C841.98 543.15, 949.05 419.77, 1005 356.25 M744.15 669.19 C828.46 571.85, 910.45 475.03, 1004.78 368.37 M744.04 668.9 C826.62 572.75, 910.37 476.36, 1005.79 367.3 M754.87 668.98 C841.02 569.95, 926.72 472.66, 1005.8 381.06 M754.38 669.41 C833 581.15, 910.54 491.79, 1005.09 380.97 M763.84 669.59 C832.76 590.26, 903.81 510.76, 1005.08 392.71 M765.23 668.63 C826.1 598.1, 888.27 528.02, 1004.62 392.3 M774.16 668.34 C864.43 568.57, 951.4 466.04, 1005.35 404.11 M775.17 669.29 C831.32 604.65, 887.35 539.13, 1005.31 404.72 M784.76 668.36 C831.67 612.31, 879.1 558.11, 1005.31 416.01 M786.23 668.33 C834.17 612.2, 881.95 557.8, 1005.18 416.16 M797.68 667.97 C862.61 594.8, 929.85 517.19, 1004.81 428.09 M796.62 668.15 C874.88 580.05, 951.27 491.67, 1004.74 429.25 M808.29 669.51 C845.54 625.56, 886.23 579.97, 1004.16 441.9 M807.01 668.21 C851.83 618.48, 894.17 569.21, 1004.4 441.19 M818.85 667.41 C883.34 592.47, 948.36 514.79, 1005.25 453.02 M818.47 668.82 C856.68 623.84, 895.24 579.21, 1005.44 453.81 M828.68 669.75 C879.35 608.99, 931.46 551.61, 1004.15 466.91 M829.13 668.78 C897.4 590.27, 966.52 511.65, 1004.78 465.18 M839.81 667.72 C889.76 609.04, 943.25 548.56, 1004.1 478.84 M839.08 668.32 C902.01 595.49, 965.03 523.81, 1005 477.52 M848.84 667.26 C908.52 600.68, 966.81 532.34, 1005.77 489.2 M850.4 668.32 C893.55 615.24, 938.5 564.59, 1005.13 490.28 M859.54 666.8 C901.93 620.55, 946.23 568.11, 1004.06 502.84 M861.16 668.59 C899.8 624.18, 936.53 580.47, 1004.19 502.92 M870.65 668.61 C917.93 617.84, 960.04 566.86, 1003.96 515.27 M870.91 669.17 C898.44 636.74, 927.1 605.27, 1004.58 515.17 M881.13 668.21 C907.16 636.49, 936.07 604.34, 1004.66 528.47 M880.56 668.92 C921.23 623.38, 959.98 576.49, 1004.23 527.31 M891.38 667.31 C917.82 639.25, 947.04 606.86, 1005.31 539.55 M892.05 669.24 C919.54 638.33, 945.97 606.89, 1005.6 538.31 M902.25 670.47 C934.69 632.34, 968.42 592.74, 1005.45 551.4 M901.72 668.7 C939.2 625.59, 978.39 580.7, 1004.61 549.91 M911.88 667.27 C946.78 631.22, 983.01 592.04, 1004.58 564.28 M913.19 668.74 C933.67 645.95, 953.94 622, 1004.77 563 M923.35 667.53 C941.2 650.52, 957.13 629.79, 1006.29 574.29 M924.04 669.44 C950.88 639.26, 976.4 608.45, 1005.48 575.45 M934.4 670.64 C951.22 651.02, 964.69 633.55, 1006.06 589.15 M933.49 668.41 C949.25 653.16, 962.28 635.7, 1004.66 588.49 M945.14 668.87 C967.18 643.02, 991.81 616.77, 1003.56 598.52 M945.03 668.61 C961.62 651.65, 977.82 632.24, 1005.1 598.57 M955.66 668.68 C968.2 655, 981.28 638.82, 1005.67 610.07 M956.08 669.2 C973.05 648.24, 991.28 628.88, 1004.42 611.91 M965.81 670.03 C980.1 650.17, 994.11 634.78, 1003.5 623.52 M966.67 669.4 C978.63 653.12, 991.27 639.37, 1004.09 624.15 M976.83 667.68 C986.52 655.1, 996.34 644.41, 1006.76 634.96 M977.08 669.31 C985.05 660.32, 992.45 649.94, 1004.72 637.14 M987.04 670.54 C990.59 663.4, 996.34 661.03, 1005.45 646.71 M986.49 669.76 C991.29 664.41, 995.53 658.44, 1005.75 648.32 M997.76 667.79 C999.14 666.13, 1000.96 664.81, 1004.65 659.98 M998.37 669.01 C1000.68 666.04, 1002.57 663.35, 1004.96 659.98" stroke="#1e1e1e" stroke-width="1" fill="none"></path><path d="M-0.34 0.31 C331.28 0.03, 662.92 -0.73, 1002.99 -0.37 M-0.31 -0.39 C349.61 3.07, 699.47 3.51, 1002.44 0.22 M1002.57 -0.72 C1001.93 158.9, 1002.7 319.23, 1002.29 667.71 M1002.81 -0.38 C1000.17 169.39, 999.84 338.97, 1002.86 667.65 M1002.15 667.2 C677.47 665.5, 351.36 664.75, 0.49 667.1 M1002.67 667.42 C708.4 665.64, 414.91 665.79, 0.21 667.54 M0.78 667.31 C1.49 466.18, 1.2 265.01, -0.05 0.28 M0 667.5 C-1.5 414.25, -1.6 161.06, -0.21 -0.05" stroke="#1e1e1e" stroke-width="2" fill="none"></path></g><g stroke-linecap="round" transform="translate(56.45752262796577 62.46762957835017) rotate(0 447.2924773720345 288.06322977915147)"><path d="M-0.06 -0.62 C200.02 -0.05, 399.62 0.72, 893.79 0.14 M-0.13 -0.24 C194.07 2.59, 388.85 2.72, 894.93 0.11 M894.08 0.38 C896.15 191.75, 896.59 381.65, 895.26 576.54 M894.25 -0.06 C895.82 188.55, 896.1 377.06, 894.21 576.47 M893.89 576.77 C625.8 573.3, 356.07 573.85, -0.47 576.59 M894.66 576.43 C616.97 573.88, 338.72 573.4, -0.32 576.26 M-0.45 576.73 C1.14 350.16, 0.66 123.16, -0.54 -0.63 M0.18 576.25 C2.22 367.89, 2.01 159.75, -0.28 0.26" stroke="#000000" stroke-width="1" fill="none"></path></g><g stroke-linecap="round"><g transform="translate(83.15124136153486 596.648623887472) rotate(0 409.1166472103415 -173.6073168750479)" fill-rule="evenodd"><path d="M0 0 C0 0, 0 0, 0 0 M0 0 C0 0, 0 0, 0 0 M3.3 1.87 C9.2 -4.75, 15.79 -12.43, 24.49 -20.53 M4.54 0.62 C11.18 -8.77, 20.14 -16.84, 22.72 -19.87 M9.51 -0.93 C23.52 -12.89, 35.47 -26.44, 44.42 -40.97 M10.83 -0.39 C22.75 -13.89, 36.4 -28.36, 46.28 -39.93 M16.94 1 C32.65 -20.83, 51.1 -39.91, 70.86 -62.83 M15.02 1.16 C31.66 -17.95, 45.68 -34.31, 69.63 -61.77 M19.84 -0.36 C39.71 -22.04, 59.23 -43.43, 91.05 -83.27 M19.92 1.43 C42.09 -22.93, 62.05 -47.15, 91.8 -82.17 M25.73 0 C47.93 -20.76, 66.04 -45.45, 113.93 -102.26 M26.5 0.01 C59.44 -37.18, 92.75 -74.65, 115.21 -102.58 M30.73 2.08 C53.22 -23.17, 75.2 -50.9, 136.19 -122.86 M30.8 0.86 C71.78 -46.35, 113.23 -93.23, 138.27 -121.46 M34.78 2.04 C64.63 -30.31, 90.81 -58.88, 160.84 -141.54 M35.66 1.43 C78.58 -49.15, 122.49 -96.44, 161.46 -143.6 M41.13 1.89 C82.45 -47.66, 127.27 -98.71, 183.37 -164.31 M41.68 1.45 C89.46 -53.76, 136.3 -108.07, 183.99 -162.56 M45.44 2.23 C99.85 -59.61, 153.83 -121.2, 206.06 -185.57 M46.89 1.37 C110.35 -73.43, 174.31 -145.91, 207.65 -183.65 M52.44 0.88 C109.74 -62.98, 164.98 -129.83, 231.99 -205.05 M51.88 1.63 C114.99 -69.87, 176.37 -142.52, 230.61 -205.4 M56.39 -0.12 C123.73 -73.19, 186.33 -148.56, 252.3 -225.04 M57.39 1.25 C122.37 -76.3, 189.41 -153.22, 253.39 -224.07 M62.39 0.71 C118.25 -65.82, 178.66 -132.48, 275.95 -245.25 M62.92 0.9 C134.98 -80.82, 206.55 -163.5, 277.26 -245.14 M68.16 1.63 C149.53 -92.53, 231.2 -187.54, 287.02 -248.36 M67.78 2.22 C126.78 -67.27, 187.15 -136.27, 285.51 -249.36 M72.5 2.6 C154.26 -87.81, 232.02 -178.8, 289.52 -247.98 M72.53 0.92 C143.53 -82.37, 215.02 -164.46, 289.34 -247.57 M77.9 0.27 C153.55 -86.23, 229.87 -174.85, 292.43 -244.99 M78.19 1.1 C141.45 -69.97, 204.1 -143.04, 292.79 -245.33 M81.76 2.42 C138.48 -63.02, 192.73 -124.45, 296.4 -243.36 M82.61 1.69 C132.94 -53.07, 181.02 -108.22, 295.97 -242.6 M87.67 1.26 C132.73 -48.07, 174.83 -96.49, 298.47 -241.24 M89.34 1.08 C135.09 -49.72, 180.17 -101.9, 299.61 -240.56 M93.35 2.95 C176.02 -92.09, 259.6 -187.32, 303.52 -238.56 M93.82 1.33 C146.99 -61.17, 201.41 -125.16, 302.97 -238.24 M99.59 2.1 C170.42 -80.45, 242.44 -162.75, 304.69 -237.01 M98.31 1.97 C148.06 -53.81, 196.37 -108.3, 306.25 -235.89 M103.61 0.53 C165.59 -66.52, 225.97 -136.39, 308.47 -232.75 M104.99 1.3 C171.06 -77.41, 239.25 -155.55, 309.44 -233.43 M107.9 2.45 C162.49 -58.76, 212.34 -119.63, 312.77 -231.18 M109.57 2.71 C162.56 -57.76, 215.88 -118.04, 312.48 -231.8 M114.46 3.12 C163.52 -53.22, 213.52 -108.18, 315.22 -228.37 M115.01 1.24 C171.62 -62.69, 228.15 -127.91, 315.65 -228.54 M119 1.75 C183.37 -70.7, 249.2 -143.73, 319.45 -225.82 M120.5 2.35 C162.36 -44.78, 201.6 -91.83, 319.65 -227.71 M125.09 1.91 C166.47 -43.59, 206.21 -89.79, 323.59 -223.27 M125.17 2.66 C165.11 -46.43, 207.02 -93.91, 321.68 -223.97 M130.1 3.39 C198.36 -78.13, 265.85 -156.82, 326.43 -222.06 M130.33 2.09 C183.09 -57.69, 236.18 -119.58, 325.69 -222.64 M135.92 1.24 C196.27 -65.72, 257.81 -137.38, 330.44 -220.77 M135.28 2.25 C207.94 -78.78, 278.12 -160.73, 329.68 -219.37 M140.58 3.07 C195.58 -56.75, 246.93 -118.67, 332.67 -217.75 M141.1 3.16 C193.35 -58.93, 247.24 -121, 332.4 -218.12 M146.15 1.6 C217.05 -79.47, 291.32 -164.84, 337 -216.51 M146.3 3 C194.8 -52.84, 242.98 -107.3, 335.67 -215.87 M150.3 1.87 C199.16 -55.73, 249.69 -114.1, 338.31 -211.79 M150.73 3.08 C214.47 -69.67, 279.42 -144.89, 338.6 -213.18 M157.27 4.62 C229.71 -81.15, 303.89 -165.3, 341.52 -211.6 M155.65 3.86 C212.81 -65.27, 271.55 -131.74, 342.1 -210.84 M163.24 3.65 C235.44 -80.99, 307.17 -164.8, 345.33 -207.24 M161.67 2.38 C230.52 -76.91, 299.23 -154.8, 345.74 -207.84 M167.46 3.08 C202.55 -40.42, 241.79 -83.39, 349.92 -205.34 M167.4 2.61 C213.34 -49.01, 259.06 -103.45, 349.84 -206.14 M172.76 5.03 C238.62 -75.85, 305.88 -153.11, 352.66 -203.86 M171.7 3.1 C243.09 -77.12, 312.44 -155.99, 352.37 -204.12 M178.3 2.3 C221.35 -47.21, 264.21 -98.5, 355.96 -202.86 M176.98 2.73 C238.26 -66.8, 298.27 -134.98, 355.66 -201.34 M183.36 3.65 C219.51 -41.95, 259.75 -88.79, 359.97 -198.69 M182.59 4.33 C217.47 -39.23, 252.9 -79.08, 358.71 -199.77 M185.95 4.2 C224.05 -40.03, 260.37 -80.79, 364.15 -198.12 M187.69 4.35 C233.88 -48.48, 279.33 -100.88, 362.3 -197.59 M192.97 4.53 C230.65 -39.66, 265.61 -81.21, 366.14 -193.77 M192.39 4.29 C250.94 -63.23, 309.94 -131.09, 365.97 -195.2 M197.18 3.31 C263.59 -71.64, 329.53 -146.82, 369.01 -193.23 M198 4.07 C248.32 -53.26, 297.27 -110.51, 369.35 -192.91 M202.71 3.62 C253.44 -52.64, 304.09 -110.2, 370.84 -191.72 M202.91 3.5 C259.9 -59.16, 315.89 -123.23, 372.4 -191.27 M208.24 2.25 C258.51 -56.18, 311.07 -117.87, 374.92 -187.49 M209.3 3.55 C264.45 -59.28, 319.62 -122.18, 374.95 -187.51 M214.13 2.9 C262.5 -48.28, 309.35 -104.95, 379.43 -187.55 M212.93 3.47 C277.25 -68.27, 339.14 -140.69, 378.78 -186.78 M217.67 4.96 C270.84 -54.73, 322.78 -116.98, 381.16 -183.99 M219.18 4.88 C258.44 -42.52, 297.37 -87.61, 382.24 -183.38 M223.58 3.85 C272.02 -52.57, 323 -106.79, 385.21 -183.05 M224.66 4 C276.88 -54.61, 328.95 -114.78, 386.14 -180.91 M230.12 6.16 C261.14 -36.4, 297.55 -74.85, 389.38 -178.08 M228.98 4.25 C281.43 -59.11, 335.41 -120.56, 388.38 -178.38 M235.61 3.42 C277.58 -49.11, 324.49 -99.21, 393.7 -175.57 M233.62 4.88 C281.08 -47.47, 325.44 -98.56, 391.58 -177.35 M240.9 3.92 C295.4 -59.72, 349.29 -121.11, 394.61 -174.56 M239.09 3.79 C285.53 -47.15, 330.03 -99.6, 396.03 -174.47 M243.52 3.2 C294.36 -53.48, 344.4 -109.35, 398.03 -172.85 M244.43 4.45 C304.87 -64.07, 364.52 -132.54, 398.99 -171.96 M249.42 5.89 C308.84 -62.35, 367.59 -127.05, 403.54 -169.57 M250.17 5.29 C278.72 -30.96, 310.76 -66.33, 402.65 -170.27 M257.05 5.92 C297.25 -46.47, 341.77 -94, 406.6 -167.41 M256.27 4.99 C295.19 -42.12, 334.71 -88.51, 404.34 -167.72 M259.64 5.33 C307.33 -49.52, 355.18 -106.41, 409.49 -165.55 M260.8 5.32 C313.25 -55.01, 365.31 -114.56, 407.95 -165.22 M265.76 4.46 C295.95 -27.27, 323 -64.35, 410.39 -164.46 M265.51 6.32 C317.24 -55.29, 368.45 -115.12, 412.5 -163.58 M271.11 3.98 C309.95 -39.14, 344.87 -80.47, 414.17 -159.42 M271.15 5.7 C307.17 -36.41, 342.69 -77.61, 414.84 -160.42 M276.47 5.15 C320.95 -44.06, 365.48 -94.14, 418.02 -158.91 M275.35 5.94 C330.56 -57.08, 383.99 -119.59, 418.89 -159.14 M282.45 5 C322.16 -42.47, 365.63 -94, 443.84 -182.13 M280.78 5.24 C342.6 -64.04, 402.1 -132.5, 442.79 -180.31 M287.17 6.64 C352.99 -72.2, 422.15 -150.07, 468.53 -202.78 M286.08 6.14 C338.05 -52.82, 388.01 -110.93, 467.57 -202.53 M291.9 5.24 C344.9 -55.8, 399.65 -117.74, 491.82 -224.75 M291.41 5.3 C339.11 -49.03, 386.88 -105.25, 491.65 -224.99 M297.57 6.63 C379.33 -89.63, 461.58 -185.59, 517.6 -247.7 M297.24 6.13 C357.5 -66.17, 418.83 -136.39, 516.06 -246.1 M301.77 5.18 C393.03 -98.98, 484.41 -202, 541.24 -268.4 M302.09 6.09 C381.23 -85.45, 460.82 -176.28, 541.49 -269.04 M306.83 7.08 C367.99 -65.06, 427.58 -135.54, 566.09 -290.54 M307.04 6.47 C365.55 -62.17, 424.21 -128.73, 565.53 -290.81 M311.49 7.32 C422.38 -121.78, 531.41 -247.68, 589.55 -312.91 M312.1 6.61 C412.26 -110.68, 513.29 -226.56, 589.94 -313.21 M318.3 5.86 C400.72 -89.89, 484.73 -185.89, 614.37 -335.38 M318.16 5.97 C394.8 -82.32, 471.45 -170.01, 614.41 -335.16 M323.66 6.18 C407.12 -91.97, 491.71 -189.36, 643.87 -361.8 M323.27 6.56 C392.57 -73.23, 461.98 -154.05, 643.71 -362.29 M328.19 7.6 C444.09 -127.15, 561.04 -261.15, 645.5 -358.87 M327.72 6.55 C426.11 -106.99, 524.59 -220.63, 645.26 -358.04 M334.11 6.58 C401.83 -73.62, 470.68 -152.9, 646.62 -354.38 M333.78 6.38 C401.84 -73.72, 472.03 -153.81, 647.34 -354.13 M338.32 6.16 C455.49 -126.11, 571.12 -261.22, 650.25 -351.36 M338.71 6.54 C408.01 -74.58, 478.98 -156.66, 649.33 -350.59 M344.4 5.56 C424.93 -88.53, 506.87 -181.91, 650.89 -347.52 M343.92 5.96 C423.47 -83.72, 502.27 -173.6, 650.92 -347.23 M350.1 6.9 C442.15 -103.14, 537.53 -211.03, 653.17 -343.28 M348.89 7.18 C427.76 -82.92, 504.28 -171.47, 652.93 -342.5 M354.07 7.92 C437.84 -90.61, 522.79 -187.99, 654.68 -338.08 M354.33 6.66 C431.72 -79.24, 507.16 -166.29, 654.6 -338.81 M359.26 6.7 C417.82 -61.73, 478.05 -129.08, 656.23 -335.02 M360.11 7.11 C458.47 -107.58, 556.78 -220.77, 656.4 -334.7 M364.18 7.79 C458.88 -100.51, 551.71 -207.89, 658.54 -331.38 M364.54 6.97 C451.45 -92.61, 537.71 -192.04, 658.82 -331.36 M370.19 6.91 C484.35 -125.3, 600.15 -256.97, 660.2 -327.15 M370.28 7.01 C429.24 -62.88, 490.6 -133.34, 660.12 -327.37 M376.32 6.68 C462.84 -89.68, 548.83 -188.8, 661.27 -322.97 M375.97 7.35 C465.11 -95.98, 553.85 -199.06, 662.14 -322.46 M380.76 7.99 C458.86 -81.04, 535 -168.91, 663.34 -319.3 M380.96 7.36 C476.45 -102.82, 571.79 -212.19, 664.18 -319.1 M385.64 7.03 C475.15 -97.47, 566.91 -202.31, 665.81 -314.16 M385.79 7.5 C495.79 -120.15, 607.11 -249.06, 665.46 -314.43 M390.62 6.8 C481.56 -97.16, 571.7 -200.31, 667.06 -310.28 M391.12 7.47 C491.94 -107.52, 591.32 -222.01, 668.38 -310.74 M395.7 6.77 C495.95 -108.02, 596.93 -224.85, 669.99 -307.16 M396.19 7.64 C475.51 -80.98, 554.05 -171.03, 669.54 -306.59 M400.6 7.61 C474.65 -76.68, 548.56 -163.25, 671.82 -303.49 M400.61 8.64 C461.23 -63.98, 523.25 -134.19, 671.49 -303.01 M405.61 6.85 C505.15 -106.42, 604.86 -221.75, 673.81 -299.65 M407.09 7.46 C477.02 -72.77, 548.33 -155.22, 672.53 -298.52 M411.46 8.64 C508.54 -104.83, 605.3 -218.68, 674.04 -294.25 M411.77 8.3 C491.58 -82.47, 569.67 -172.21, 674.38 -294.96 M417.37 7.92 C511.26 -99.66, 604.09 -206.42, 676.59 -290.77 M416.3 8.51 C489.82 -76.21, 562.98 -160.88, 677.24 -290.71 M423.07 7.1 C491.26 -73.6, 562.89 -154.3, 678.4 -287.94 M422.57 8.37 C481.27 -56.46, 537.89 -122.21, 678.67 -287.44 M427.6 9.25 C506.7 -84.15, 586.95 -175.51, 679.55 -283.18 M427.71 8.13 C482.97 -57.95, 540.18 -123.02, 680.94 -283.42 M433 9.66 C528.72 -102.77, 626.21 -214.01, 681.5 -279.01 M432.5 9.08 C499.19 -66.75, 563.04 -140.83, 681.89 -279.33 M438.3 7.25 C513.75 -79.23, 590.27 -168.64, 685.02 -273.53 M437.62 7.93 C493.9 -57.67, 552.12 -124.91, 683.75 -274.53 M441.85 8.13 C519.75 -79.85, 595.56 -165.92, 686.68 -270.91 M442.82 8.39 C530.43 -92.1, 618.73 -193.04, 686.02 -271.05 M448.67 8.74 C539.43 -97.44, 633.87 -203.61, 687.99 -267.67 M447.71 8.67 C499.64 -48.86, 550.81 -107.09, 687.46 -267.16 M453.22 8.79 C545.18 -97.85, 638.75 -205.75, 690.45 -262.13 M453.32 8.33 C523.94 -69.88, 593 -148.5, 689.4 -262.68 M457.98 8.39 C519.9 -58.81, 577.86 -124.48, 692.43 -257.93 M458.22 8.54 C530.31 -73.92, 601.05 -155.12, 691.8 -258.63 M464.74 9.75 C553.92 -94.9, 645.35 -199.47, 693.02 -255.05 M463.64 9.83 C536.31 -73.24, 606.57 -155.06, 693.08 -255.16 M467.93 8.92 C558.91 -94.4, 648.62 -195.58, 695 -251.81 M469.44 9.65 C513.81 -43.6, 560.1 -98.27, 695.82 -251.08 M473.15 9.53 C517.56 -41.71, 562.62 -93.1, 697.91 -247.24 M474.61 9.55 C536.81 -62.17, 599.41 -134.24, 696.99 -247.04 M478.46 10.2 C560.78 -83.45, 642.38 -175.99, 698.73 -241.98 M479.18 9.83 C540.29 -58.79, 599.62 -128.05, 699.56 -243.7 M485.08 10.61 C553.76 -68.24, 621.16 -147.61, 700.85 -238.15 M484.81 8.96 C561.05 -78.23, 637.85 -167.23, 701.22 -239.55 M490.89 10.77 C556.61 -66.67, 623.03 -144.94, 703.55 -233.54 M489.34 10.26 C576.53 -85.94, 660.68 -183.68, 702.89 -234.53 M493.91 10.39 C576.08 -80.88, 652.97 -173.58, 703.4 -230.72 M494.71 10.34 C562.21 -66.08, 627.03 -141.25, 704.59 -231.9 M499.59 11.05 C547.4 -43.79, 594.85 -101.19, 705.06 -227.41 M500.06 10.04 C570.52 -71.77, 641.31 -153.75, 706.85 -227.02 M504.48 11.15 C555.23 -44.9, 600.27 -101.47, 706.71 -223.95 M505.21 9.55 C547.82 -40.85, 592.97 -91.71, 708.24 -222.6 M509.39 9.59 C572.61 -61.39, 633.67 -130.9, 710.95 -219.04 M511 9.97 C551.61 -40.21, 594.54 -89.04, 709.63 -218.96 M517.07 9.36 C569.63 -49.39, 623.18 -111.77, 711.98 -213.66 M515.73 9.63 C580.65 -63.47, 646.37 -139.46, 711.27 -214.22 M522.42 11 C595.02 -74.4, 670.4 -162.01, 713.13 -210.69 M521.02 9.68 C589.83 -69.54, 660.32 -149.33, 713.28 -211.1 M524.56 11.96 C579.28 -50.12, 634.33 -113.43, 716.68 -206.15 M525.51 10.81 C569.73 -38.55, 613.54 -90.3, 715.1 -207.63 M532.11 11.69 C591.8 -55.76, 648.3 -123.86, 718.22 -204.38 M532.29 10.06 C587.19 -54.64, 641.79 -117.04, 717.87 -203.34 M536.59 9.16 C574.95 -31.6, 611.78 -77.32, 719.89 -200.21 M536.33 10.28 C589.55 -47.82, 640.56 -107.75, 719.38 -198.74 M541.45 10.34 C606.34 -63.58, 669.25 -136.47, 721.61 -193.46 M541.18 11.65 C610.57 -65.2, 676.82 -144.43, 720.66 -194.88 M547.49 10.36 C615.37 -66.9, 684.85 -148.51, 722.6 -190.23 M547.8 10.51 C611.51 -62.39, 674.46 -137.41, 722.77 -192.11 M551.82 10.73 C591.21 -33.47, 626.81 -77.74, 724.57 -186.13 M551.53 11.49 C606.53 -53.03, 661.4 -116.51, 723.99 -187.14 M557.57 10.05 C608.41 -48.64, 660.66 -108.6, 727.21 -183.45 M556.96 11.75 C616.88 -54.5, 675.62 -122.08, 726.05 -183.53 M563.46 12.43 C602.94 -33.72, 641.4 -80.69, 728.13 -180.51 M562.39 11.64 C608.16 -41.81, 653.12 -94.75, 728.15 -179.32 M567.59 11.76 C604.26 -34.14, 641.69 -76.21, 731.02 -175.8 M567.3 11.93 C602.2 -28.06, 635.08 -67.32, 729.89 -175.32 M573.2 12.04 C623.7 -49.02, 674.93 -108.22, 732.18 -169.89 M572.79 10.61 C631.15 -57.9, 690.34 -125.6, 731.16 -170.45 M579.65 12.07 C611.47 -27.96, 644.07 -65.01, 735.27 -166.59 M577.82 12.05 C629.48 -47.15, 679.83 -104.46, 733.5 -166.98 M584.62 12.98 C629.04 -38.5, 671.56 -90.91, 734.9 -161.8 M582.9 12.23 C640.89 -53.04, 697.84 -117.23, 735.7 -162.78 M588.25 11.96 C630.63 -36.05, 670.92 -85.44, 738.45 -158.33 M589.61 10.69 C644.7 -53.51, 701.59 -117.35, 736.73 -158.63 M592.4 10.95 C634.53 -37.95, 676.64 -82.39, 739.21 -154.73 M594.28 11.84 C650.95 -51.35, 708.06 -116.56, 739.8 -155.54 M600.74 13.7 C629.31 -20.56, 655.06 -53.98, 741.91 -149.63 M598.59 11.45 C633.81 -26.61, 668.79 -65.23, 739.99 -151.47 M603.74 10.31 C654.52 -44.19, 702.49 -99.92, 742.23 -148.04 M604.98 11.64 C660.52 -50.13, 714.05 -111.98, 743.83 -147.52 M611.1 12.43 C657.06 -44.13, 707.47 -100.41, 746.19 -144.7 M609.27 12.34 C650.05 -34.92, 691.21 -82.62, 744.74 -142.69 M614.78 13.41 C658.85 -35.34, 698.1 -84.25, 745.33 -141.04 M614.07 12.63 C655.19 -33.55, 696.17 -78.46, 746.13 -138.73 M621.83 13.16 C654.48 -29.82, 692.39 -72.94, 747.04 -135.41 M619.61 12.77 C664.91 -40.65, 710.46 -91.02, 749.02 -134.62 M624.27 12.67 C658.22 -24.62, 692.11 -66.09, 750.29 -129.31 M624.53 13.19 C661.33 -29.16, 699.18 -71.94, 750.43 -131.6 M629.5 11.85 C666.51 -30.85, 705.12 -72.47, 753.35 -129.61 M631.24 11.69 C661.78 -24.6, 693.88 -62.22, 752.46 -127.01 M635.68 10.95 C663.77 -23.47, 692.81 -55.45, 755.24 -123.1 M635.14 12.27 C670.86 -29, 705.34 -69.41, 753.77 -123.86 M641.16 10.64 C669.67 -23.44, 703.42 -58.68, 756.93 -121.47 M640.36 13.05 C679.03 -31, 717.91 -75.19, 756.34 -118.66 M645.68 11.2 C666.78 -13.04, 690.13 -40.47, 757.94 -116.65 M646.61 12.44 C676.15 -23.66, 705.53 -58.64, 756.64 -114.69 M651.74 12.39 C682 -21.29, 710.5 -57.25, 758.4 -109.81 M650.99 13.03 C687.9 -30.09, 723.9 -71.81, 759.17 -112.18 M655.93 11.49 C683.75 -16.83, 706.7 -45.82, 762.93 -106.53 M656.92 12.52 C693.91 -29.16, 730.19 -72.79, 760.95 -107.33 M660.19 12.39 C694.61 -24.05, 727.57 -63.25, 763.42 -101.98 M661.88 12.85 C691.59 -20.4, 719.88 -52.9, 763.7 -104.69 M667.15 11.6 C703.27 -29.17, 736.71 -68.14, 766.19 -99.84 M666.31 13.1 C700.44 -22.69, 731.95 -59.16, 765.7 -99.99 M673.48 14.16 C697.76 -12.51, 719.99 -43.12, 766.73 -93.58 M671.47 13.44 C697.34 -14.17, 721.01 -41.4, 765.93 -94.51 M679.11 12.8 C701.38 -17.55, 729.24 -45.7, 769.66 -89.49 M676.25 13.26 C706.89 -18.66, 733.59 -51.37, 768.63 -92.14 M684.62 11.92 C700.86 -10.66, 721.59 -29.06, 770.69 -87.79 M683 13.06 C713.1 -21.01, 742.77 -55.03, 770.74 -87.49 M686.55 13.53 C706.73 -9.51, 726.96 -32.71, 773.34 -81.89 M688.43 13.38 C711.42 -15.43, 736.66 -44.2, 773.18 -83.23 M692.67 14.39 C722.16 -20.78, 755.04 -55.06, 774.11 -79.27 M693.41 13.95 C720.22 -18.22, 749.02 -50.12, 773.59 -79.93 M697.3 12 C720.37 -10.74, 740.26 -33.34, 775.28 -76.73 M697.8 12.58 C713.79 -3.19, 729.61 -21.12, 775.58 -75.41 M702.68 12.49 C720.89 -5.86, 739.83 -27.34, 778.77 -69.5 M704.36 13.11 C721.57 -7.28, 740.13 -29.21, 778.18 -70.86 M708.21 13.86 C736.47 -20.73, 765.53 -51.27, 778.19 -66.27 M707.52 13.51 C723.21 -5.13, 741.1 -22.43, 780.39 -67.87 M715.77 13.86 C737.39 -13.85, 762.85 -39.98, 781.48 -62.49 M713.27 13.82 C739.78 -13.71, 763.82 -43.65, 781.4 -64.83 M717.12 15.99 C739.51 -8.84, 757.58 -31.55, 782.18 -59.25 M720 15.06 C737.39 -7.81, 756.84 -30.97, 784.33 -59.74 M725.09 14.62 C744.27 -8.77, 766.22 -31.75, 786.13 -56.51 M724.31 14.37 C748.35 -12.9, 772.19 -41.4, 784.46 -56.58 M728.96 12.98 C747.95 -8.82, 765.84 -27.68, 787.38 -52.22 M729.87 13.93 C741.62 -0.68, 754.65 -14.18, 785.76 -52.4 M735.78 15.08 C749.84 -3.32, 763.27 -18.61, 790.25 -47.36 M735.32 14.83 C752.69 -5.51, 770.27 -26.38, 788.37 -47.38 M739.66 16.9 C756.45 -2.35, 772.41 -21.02, 789.93 -45.26 M739.02 15.29 C755.86 -3.17, 771.29 -20.77, 789.82 -44.22 M747.05 14.31 C761.6 -2.66, 777.36 -24.31, 793.8 -40.4 M744.94 14.51 C763.23 -5.59, 779.98 -25.23, 791.8 -39.95 M752.16 13.03 C763.23 2.99, 774.84 -11.43, 794.04 -33.73 M749.54 15.61 C766.6 -3.56, 782.23 -21.36, 793.41 -35.29 M756.15 13.81 C769.73 -1.67, 785.51 -22.33, 797.7 -29.74 M755.53 14.77 C765.04 4.13, 773.3 -4.86, 796.6 -30.74 M762.49 14.37 C770.72 0.2, 782.62 -11.25, 798.58 -27.52 M760.77 14.11 C773.15 0.16, 786.82 -13.23, 798.76 -27.7 M766.31 13.33 C776.62 3.18, 788.45 -12.51, 799.94 -22.05 M766.14 15.68 C772.35 6.73, 779.55 -0.75, 800.85 -24.73 M771.66 17.39 C779.97 5.07, 788.23 -4.17, 801.81 -19.04 M770.31 15.53 C778.06 6.69, 784.46 -0.08, 801.24 -20.51 M776.83 13.31 C785.25 3.84, 794.12 -6.06, 803.56 -16.25 M775.62 15.64 C784.91 5.38, 793.82 -4.1, 803.91 -16.09 M781.72 13.79 C790.97 5.97, 799.97 -4.3, 804 -10.51 M780.95 14.86 C789.86 6.09, 797.67 -2.74, 804.92 -12.03 M787.06 14.69 C793.76 8, 799.24 1.4, 806.6 -6.06 M785.52 16.03 C793.63 8.03, 801.09 0.54, 807.32 -7.73 M793.77 16.96 C796.38 12.36, 800.34 7.88, 807.47 -5.64 M791.73 14.88 C797.57 8.56, 802.33 2.5, 809.59 -4.54 M796.32 14.59 C803.14 10.86, 807.73 4.55, 810.11 0.26 M797.1 15.99 C801 12.27, 804.46 8.78, 811.89 -0.07 M804.14 16.64 C806.52 12.74, 808.8 9.37, 812.59 2.94 M803.41 15.95 C804.98 12.09, 809.06 8.49, 812.02 4.74 M806.89 16.35 C809.06 13.13, 811.77 10.43, 814.28 8.23 M808.08 15.88 C809.48 13.21, 812.03 11.17, 814.49 8.27 M812.4 16.22 C813.15 15.01, 814.23 14.8, 815.94 12.61 M812.84 15.98 C813.51 15.25, 814.38 14.22, 815.99 12.59 M0 0 C0 0, 0 0, 0 0 M0 0 C0 0, 0 0, 0 0 M6.57 0.33 C5.45 -0.38, 4.43 -1.93, 3.6 -2.72 M6.52 0.18 C5.03 -0.85, 3.96 -1.92, 3.51 -2.37 M11.92 0.39 C10.06 -1.85, 8.63 -3.51, 6.04 -5.81 M12.61 0.45 C10.26 -0.99, 8.51 -3.62, 6.13 -4.96 M17.49 0.5 C15.96 -2.12, 14.22 -3.69, 8.22 -6.9 M18.53 0.07 C15.88 -2.39, 13.28 -3.74, 9.19 -7.2 M25.72 -0.82 C22.11 -4.93, 17.15 -8.36, 13.36 -9.25 M24.74 1.21 C21.37 -1.93, 18.74 -5.62, 11.82 -10.68 M31.47 1.65 C26.57 -4.94, 22.93 -8.07, 15.73 -11.32 M32.18 1.37 C27.21 -2.24, 23.7 -5.66, 15.17 -13.95 M38.62 1.88 C31.08 -3.33, 29.57 -7.86, 18.46 -16.19 M37.64 1.83 C31.21 -5.81, 23.06 -12.1, 17.96 -16.35 M44.25 2.11 C38.32 -3.25, 28.28 -10.76, 21.16 -17.27 M43.11 1.33 C36.34 -4.65, 28.78 -12.17, 20.88 -18.19 M47.78 -0.88 C40.85 -5.51, 31.45 -15.91, 25.27 -20.66 M48.99 0.22 C40.48 -7.01, 30.23 -15.69, 23.36 -21.07 M55.44 2.42 C47.69 -6.36, 42.57 -11.9, 27.61 -21.91 M55.97 1.9 C46.55 -6.23, 38.66 -14.39, 27.48 -22.98 M63.1 -0.08 C49.62 -10.49, 36.16 -21.74, 31.68 -27.61 M62.35 0.59 C56.16 -5.53, 49.36 -10.57, 30.74 -26.87 M68.55 0.3 C59.61 -9.7, 45.39 -19.2, 32.98 -28.45 M67.87 2.53 C56.7 -9.26, 43.26 -21.19, 33.98 -29.74 M73.35 1.35 C66.65 -7.57, 55.94 -15.34, 34.34 -32.78 M74.07 0.4 C64.98 -5.86, 56.45 -15.56, 36.13 -33.26 M79.11 0.32 C67.76 -11, 56.37 -19.02, 39.2 -35.67 M80.12 0.56 C71.28 -7.71, 60.9 -17.17, 40.13 -34.86 M86.33 3.6 C73.21 -12.41, 59.98 -23.2, 42.94 -36.46 M88.2 0.77 C70.54 -13.02, 51.75 -28.79, 41.75 -38.28 M94.69 1.13 C77.2 -12.78, 64 -25.81, 46.21 -39.86 M93.28 1.48 C74.58 -14.17, 56.04 -30.82, 45.43 -40.72 M101.63 3.34 C87.47 -9.43, 71.28 -21.62, 46.21 -41.46 M100.29 2.84 C85.42 -9.8, 70.89 -23.07, 47.1 -43.41 M106.89 0.23 C95.22 -9.2, 80.75 -19.28, 50.03 -44.85 M106.14 2.67 C86.14 -15.9, 65.5 -31.97, 52.08 -44.69 M110.86 1.7 C97.27 -9.41, 80.19 -26.72, 53.91 -47.12 M112.62 2.78 C93.78 -15.46, 74.67 -30.31, 53.88 -48.63 M119.35 1.23 C94.51 -16.67, 69.1 -39.36, 56.66 -51.99 M118.72 1.65 C96.78 -17.22, 74.34 -37.69, 58.05 -50.11 M125.93 4.26 C103.33 -14.87, 83.34 -31.86, 58.83 -55.31 M125.47 2.74 C109 -13.3, 91.08 -27.83, 59.04 -53.41 M132.48 3.21 C110.62 -15.82, 88.87 -35.88, 64.15 -58.17 M132.03 2.48 C105.18 -20.11, 80 -42.78, 64.02 -55.32 M135.75 2.46 C113.71 -15.65, 94.46 -34.81, 67.53 -59.78 M136.82 3.26 C120.87 -12.83, 104.45 -27.57, 66.51 -59.04 M143.71 0.74 C129.88 -10.8, 112.44 -25.6, 68.61 -61.82 M143.31 2.74 C128.04 -10.74, 112.21 -24.46, 70.41 -60.63 M150.29 4.8 C135.58 -12.03, 120.02 -24.02, 71.36 -62.78 M149.42 3.54 C129.95 -14.81, 109.32 -32.61, 73.19 -64.28 M155.77 3.81 C138.3 -9.08, 123.34 -26.65, 74.13 -68.88 M155.3 2.51 C136.03 -14.74, 116.74 -31.07, 76.39 -67.34 M161.29 2.31 C140.66 -15.21, 118.04 -34.63, 76.96 -69.12 M162.48 3.79 C129.89 -23.83, 97.97 -52.33, 78.5 -68.38 M169.43 3.29 C138.96 -24.42, 104.75 -51.83, 82.87 -70.84 M167.94 2.73 C144.63 -17.46, 119.67 -39.3, 80.83 -72.75 M174.52 4.47 C143.27 -25.32, 110.95 -54.51, 85.23 -74.8 M174.96 4.26 C144.22 -22.44, 114.97 -47.92, 84.32 -74.74 M179.47 2.1 C152.25 -20.1, 126.27 -45.38, 89.01 -78.72 M181.44 3.51 C152.6 -20.52, 122.48 -47.57, 87.38 -77.12 M186.04 3.2 C159.37 -21.07, 127.42 -48.67, 90.13 -80.35 M186.8 4.18 C163.81 -17.14, 138.02 -37.56, 90.76 -79.25 M194.7 4.02 C164.94 -22.03, 138.52 -42.13, 92.75 -85.05 M193.23 3.83 C157.48 -27.39, 122.3 -57.87, 93.38 -82.7 M198.92 2.28 C162.5 -28.12, 127.04 -60.88, 96.62 -84.83 M198.66 4.18 C160.96 -30.56, 123.78 -63.29, 97.18 -85.29 M205.98 4.94 C170.64 -27.54, 129.79 -61.56, 98.34 -89.92 M204.98 3.82 C164.03 -32.47, 121.55 -70.47, 98.93 -88.74 M211.29 4.55 C184.53 -21.3, 155.79 -43.88, 102.71 -91.83 M212.97 4.5 C176.21 -27.79, 139.93 -57.42, 103.15 -90.72 M218.94 6.23 C187.25 -22.63, 155.7 -51.53, 104.04 -94.93 M218.33 5.15 C190 -19.11, 160.26 -45.37, 105.87 -94.46 M224.28 4.73 C180.55 -31.97, 136.93 -70.39, 109.45 -95.48 M224.84 4.82 C192.65 -22.13, 161.42 -50.59, 109.52 -96.86 M230.24 2.74 C188.88 -30.42, 145.58 -69.45, 112.16 -101.22 M230.17 4.02 C192.62 -27.52, 154.96 -61.36, 110.75 -100.06 M238.09 4.62 C207.96 -20.81, 179.38 -45.69, 114.89 -102.43 M237.18 4.41 C194.2 -32.69, 153.7 -69.85, 115.32 -101.55 M243.82 6.74 C196.81 -36.43, 152.64 -71.98, 119.04 -103.47 M243.86 4.09 C218.29 -17.65, 191.58 -40.67, 117.87 -103.74 M248.67 6.51 C203.21 -31.38, 159.95 -71.66, 120.14 -105.86 M250.33 4.61 C198.98 -39.33, 150.28 -82.83, 120.85 -106.09 M255.67 5.37 C227.38 -23.02, 195.86 -49.78, 125.04 -111.86 M255 4.95 C213.86 -33.01, 171.93 -67.06, 124.27 -110.68 M260 5.16 C212.2 -39.21, 164.78 -81.99, 127.33 -111.5 M261.38 5.79 C225.82 -24.19, 191.81 -54.48, 126.63 -112.29 M269.78 3.84 C240.53 -19.77, 211.38 -44.26, 129.32 -113.49 M268.44 6.28 C230.26 -27.11, 193.71 -59.61, 129.46 -115.37 M276.37 3.8 C220.09 -41.53, 170.52 -84.07, 133.63 -119.59 M275.43 6.28 C233.74 -29.63, 193.75 -65.52, 132.43 -117.41 M282.95 6.88 C242.67 -28.01, 200.09 -63.87, 136.78 -120.93 M282 6.35 C244.04 -25.3, 206.17 -57.16, 135.44 -119.29 M287.07 7.45 C235.4 -41.4, 178.65 -88.95, 137.22 -122.92 M287.27 4.81 C250.83 -26.4, 215.67 -57.51, 138.23 -123.23 M293 6.58 C243.91 -35, 197.12 -76.9, 140.81 -126.23 M293.66 5.01 C244.92 -35.63, 194.67 -77.84, 142.2 -125.85 M298.56 6.24 C247.25 -43.34, 189.97 -88.5, 143.5 -128.76 M300.36 6.66 C245.09 -42.82, 189.7 -92.39, 145.21 -128.92 M306.88 6.78 C247.31 -45.33, 185.41 -97.64, 149.28 -130.07 M305.24 6.26 C265.76 -26.02, 226.79 -61.48, 147.76 -130.36 M310.06 4.44 C261.99 -35.75, 216.73 -77.14, 150.3 -133.14 M312.19 5.85 C263.48 -35.04, 216.09 -76.31, 150.96 -134.33 M318.1 7.64 C256.31 -48.5, 197.61 -102.38, 153.68 -137.56 M317.18 5.58 C271.25 -33.61, 225.86 -73.32, 153.72 -135.69 M325.51 6.43 C266.84 -44.16, 208.99 -95.41, 155.41 -138.22 M324.7 6.51 C288.37 -23.24, 251.5 -54.62, 156.2 -138.77 M329.69 6.35 C262.55 -53.32, 196.46 -110.91, 159.83 -142.86 M330.52 6.88 C293.06 -24.63, 257.43 -54.8, 160.45 -141.87 M336.3 8.22 C300.86 -26.06, 264.39 -56.88, 164.27 -143.02 M336.48 6.34 C293.04 -30.85, 247.38 -70.72, 163.43 -145.44 M342.42 7.4 C305.1 -28.63, 265.52 -59.98, 164.75 -148.53 M343.49 5.82 C294.67 -36.97, 245.48 -79.93, 166.36 -147.22 M349.37 8.07 C278.44 -56.79, 207.22 -117.76, 167.81 -148.76 M349.33 6.48 C294.91 -38.81, 242.52 -84.46, 169.35 -150.2 M355.84 5.47 C287.04 -48.34, 221.26 -105.87, 172.33 -153.27 M355.08 6.3 C302.05 -38.31, 250.28 -84.25, 172.25 -152.65 M363.63 6.67 C296.94 -50.17, 231.37 -105.54, 174.81 -157 M362.78 7.5 C292.51 -54.81, 222.78 -114.67, 174.36 -156.16 M368.17 6.34 C321.92 -33.69, 273.48 -77.07, 178.09 -157.12 M368.89 8.04 C315.2 -36.24, 264.69 -81.8, 178.63 -157.39 M373.52 7.37 C313.57 -46.06, 252.49 -98, 179.78 -161.57 M373.28 7.38 C323.47 -36.36, 272.33 -79.01, 181.43 -160.96 M380.14 6.89 C327.11 -40.46, 272.47 -88.77, 184.25 -162.93 M381.21 7.93 C333.49 -34.49, 286.41 -75.95, 185 -163.08 M386.33 6.67 C328.83 -43.44, 269.66 -96.41, 187.94 -166.64 M387.36 7.6 C322.85 -47.62, 258.09 -103.8, 187.19 -165.97 M392.32 8.91 C334.96 -46.21, 275.58 -96.87, 191.36 -168.29 M392.54 7.79 C344.02 -34.21, 293.5 -77.45, 190.63 -168.1 M398.16 6.93 C339.22 -42.5, 280.34 -95.72, 194.79 -171.19 M398.63 7 C357.02 -27.76, 314.49 -66.27, 193.31 -171.38 M404.65 6.44 C335.5 -53.22, 268.34 -111.89, 196.84 -173.65 M406.04 7.17 C344.67 -44.96, 286.32 -95.9, 195.47 -173.25 M411.4 7.12 C361.88 -33.88, 313.17 -74.47, 200.84 -176.59 M412.26 7.83 C328.62 -64.68, 243.33 -137.81, 199.33 -176.62 M417.76 8.23 C352.07 -46.21, 288.22 -103.63, 202.88 -180.62 M418.62 7.8 C372.91 -31.38, 328.57 -70.8, 202.25 -179.26 M424.61 9.26 C365.16 -43.06, 304.58 -94.2, 205.01 -181.14 M424.71 8.79 C369.81 -39.3, 314.98 -88.4, 204.9 -181.9 M431.54 9.05 C367.73 -43.82, 305.75 -99.57, 208.57 -184.37 M429.89 7.67 C379.79 -35.81, 330.6 -79.07, 208.13 -184.57 M436.43 9.64 C368.08 -50.59, 298.84 -110.97, 212.24 -187.22 M436.12 7.91 C359.34 -56.4, 281.92 -124.02, 212.1 -186.91 M443.73 9.12 C393.5 -33.96, 344.44 -76.42, 214.53 -190.33 M442.58 8.55 C351.1 -68.26, 261.24 -147.46, 214.66 -190.64 M449.28 8.5 C398.92 -33.69, 345.9 -79.5, 217.73 -193.06 M448.63 9.64 C371.93 -57.94, 296.05 -125.37, 217.99 -192.42 M455.14 10.67 C397.73 -41.47, 339.6 -92.57, 221.36 -194.57 M455.08 9.14 C380.71 -55.95, 305.24 -120.63, 220.93 -195.21 M462.51 9.57 C402.31 -41.87, 343.41 -93.11, 223.45 -197.42 M461.85 9.2 C389.55 -52.09, 319.02 -113.07, 224.24 -198.09 M467.16 9.75 C380.36 -67.5, 293.43 -143.68, 225.45 -200.15 M467.39 9.24 C404.78 -46.98, 341.31 -101.16, 225.91 -200.42 M474.29 9.4 C418.5 -40.01, 360.76 -88.42, 230.54 -203.68 M473.95 8.88 C422.57 -35.38, 369.86 -80.8, 229.12 -203.22 M479.87 8.38 C394.68 -65.19, 307.82 -139.85, 231.7 -206.85 M481.22 9.59 C421.83 -38.65, 365.02 -89.6, 231.91 -206.16 M486.24 8.72 C398.42 -65.71, 309.13 -143.36, 235.3 -209.87 M487.05 9.61 C426.19 -44.15, 363.48 -96.73, 235.24 -208.89 M493.82 8.23 C432.79 -41.49, 371.19 -93.29, 237.95 -212.77 M492.7 9.34 C418.76 -55.41, 345.38 -119.54, 238.19 -210.98 M498.47 9.78 C447.59 -35.46, 394.9 -83.23, 241.7 -213.22 M498.88 9.55 C427.6 -54.13, 355.13 -116.98, 241.85 -214.38 M506.53 9.07 C437.76 -49.22, 369.14 -108.09, 244.84 -215.87 M505.92 10.6 C436.17 -48.75, 369.27 -107.27, 244.54 -216.8 M510.73 9.06 C432.26 -59.57, 353.1 -127.53, 248.81 -219.33 M511.32 10.87 C407.71 -78.7, 304.99 -168.72, 247.1 -219.38 M518.62 10.38 C436.87 -60.98, 356.06 -132.96, 249.13 -223 M518.04 9.87 C410.86 -81.72, 303.72 -174.2, 250.61 -222.83 M523.72 10.02 C417.86 -84.22, 312.19 -175.16, 252.64 -224.76 M524.32 10.53 C428.31 -71.6, 332.77 -154.78, 253.91 -224.52 M530.43 10.1 C464.72 -44.44, 399.77 -103.02, 256.19 -226.88 M530.13 10.58 C442.53 -68.64, 352.79 -146.92, 257.3 -227.04 M535.99 11.18 C441.59 -71.47, 345.93 -151.79, 260.13 -229.19 M536.18 10.12 C437.91 -75.86, 339.95 -162.66, 260.12 -230.71 M543.25 11.55 C485.3 -38.04, 426.45 -89.69, 262.58 -233.55 M543.63 11.25 C455.48 -64.93, 367.62 -142.29, 263.04 -231.93 M549.46 10.16 C479.49 -47.38, 412.32 -105.31, 264.88 -236.29 M548.4 11.03 C471.44 -56.17, 393.26 -123.91, 265.71 -236 M555.18 11.37 C463.57 -69.88, 372.01 -149.46, 269.71 -236.78 M554.53 10.77 C447.54 -82.72, 339.46 -177.75, 269.01 -237.32 M561.64 9.96 C474.29 -64.42, 388.97 -140.78, 271.15 -240.22 M560.92 10.52 C446.28 -90.18, 332.67 -190.19, 272 -241.31 M567.31 10.44 C461.47 -82.55, 353.24 -177.58, 274.69 -244.13 M567.37 10.94 C453.54 -88.21, 337.63 -188.71, 275.42 -243.64 M573.95 10.58 C468.86 -80.97, 362.3 -173.6, 277.62 -246.42 M573.71 11.21 C482.72 -65.92, 393.21 -144.83, 277.42 -245.98 M579.48 10.19 C486.36 -68.53, 393.5 -148.7, 281.78 -248.45 M579.53 11.19 C465.61 -88.61, 350.41 -188.64, 280.59 -248.41 M585.38 12.22 C472.38 -88.32, 358.47 -187.35, 283.69 -251.07 M585.96 11.46 C468.92 -90.6, 352.16 -192.33, 284.08 -252 M592.77 11.9 C476.92 -90.25, 358.38 -191.42, 286.28 -253.71 M592.76 12.1 C524.21 -49.07, 454.66 -109.1, 286.57 -254.49 M598.25 11.66 C502.18 -73.58, 408.03 -154.64, 316.22 -234.15 M598.97 11.67 C502.61 -70.4, 406.97 -152.79, 315.87 -235.27 M605.48 11.12 C504.22 -75.78, 403.91 -164.93, 345.6 -213.05 M604.89 12.73 C515.28 -66.07, 425.79 -143.11, 345.2 -213.86 M612.4 12.7 C530.79 -59.06, 448.92 -131.49, 373.59 -194.98 M611.6 11.32 C556.18 -36.63, 499.72 -85.86, 373.55 -193.98 M616.12 13.05 C575.07 -26.09, 531.14 -64.11, 417.34 -159.96 M617.68 11.32 C574.29 -24.21, 531.13 -61.14, 417.82 -161.19 M623.56 13.58 C556.18 -48.13, 487.41 -107.44, 421.1 -163.71 M624.02 12.98 C568.09 -37.68, 511.2 -86.96, 421.5 -163.4 M631.3 12.23 C565.86 -42.65, 501.18 -101.45, 425.45 -167.24 M630.76 13.26 C573.83 -38.41, 517.52 -87.05, 424.6 -167.18 M635.62 12.2 C563.28 -51.23, 486.89 -117.99, 428.25 -169.03 M635.24 12.63 C579.25 -36.06, 524.74 -84.49, 427.21 -169.45 M642.77 11.87 C595.92 -26.1, 551.56 -66.19, 428.87 -172.85 M642.02 11.75 C600.76 -23.4, 558.89 -60.01, 430.99 -171.59 M648.42 11.57 C586.22 -44.22, 520.09 -98.63, 435 -173.54 M648.83 13.48 C587.63 -38.59, 526.7 -91.66, 433.5 -173.59 M654.05 12.8 C605.13 -32.2, 558.34 -74.34, 434.87 -176.28 M654.98 12.28 C607.48 -30.61, 557.38 -73.35, 435.89 -176.53 M662.48 12.82 C584.64 -53.57, 508.49 -121.23, 440.71 -179.31 M661.96 13.01 C610.41 -31.46, 558.49 -76.28, 440.35 -179.86 M666.26 12.86 C598.08 -46.96, 531.14 -107.21, 442.88 -184.08 M667.24 12.65 C613.12 -33.29, 559.85 -79.04, 442.54 -182.46 M673.91 12.93 C597.42 -53.13, 523.64 -116.04, 447.01 -184.28 M673.24 13.2 C605.6 -47.86, 535.05 -108.07, 445.74 -184.33 M679.77 13.65 C630.59 -30.56, 582.34 -74.2, 449.48 -187.53 M680.34 13.72 C617.31 -38.95, 555.2 -92.21, 448.67 -187.61 M687.04 14.2 C592.29 -68.59, 499.25 -150.77, 450.45 -189.75 M686.96 14.24 C616.09 -48.11, 544.26 -109.44, 452.24 -190.86 M693.48 14.4 C604.28 -60.78, 516.17 -137.78, 452.95 -193.81 M692.33 14.08 C643.24 -28.96, 594.18 -71.78, 454.83 -193.19 M698.79 12.37 C620.27 -55.57, 542.47 -122.5, 458.35 -195.91 M698.4 13.81 C616.29 -57.98, 534.94 -129.34, 457.51 -195.65 M705.65 12.59 C613.7 -65.66, 523.26 -143.58, 460.05 -198.14 M704.97 14.09 C631.02 -50.47, 558.85 -113.66, 460.66 -198.21 M711.97 14.6 C661.88 -30.36, 611.14 -73.76, 464.44 -200.56 M710.73 14.34 C637.09 -48.9, 564.03 -113.2, 463.63 -201.03 M717.6 15.61 C644.82 -48.11, 575.58 -109.16, 467.53 -205.28 M718.17 14.36 C660.87 -35.37, 605.53 -83.62, 466.97 -204.46 M723.05 13.81 C638.29 -62.94, 550.17 -136.82, 470.37 -206.06 M724.53 14.88 C623.37 -71.47, 523.82 -158.26, 469.36 -206.1 M729.63 15.42 C639.59 -66.1, 549.68 -143.12, 472.41 -208.68 M729.79 14.57 C670.86 -39.19, 609.91 -90.1, 472.39 -208.94 M736.62 14.31 C631.52 -74.51, 527.12 -164.82, 475.71 -212.29 M735.51 13.85 C676.98 -37.76, 616.08 -91.08, 476.31 -211.66 M743.02 14.61 C667.72 -52.5, 589.18 -119.11, 478.48 -213.72 M742.18 15.33 C683.93 -36.83, 626.01 -87.22, 478.05 -215.38 M750.08 15.79 C687.76 -39.32, 627.34 -91.56, 482 -218.19 M749.48 15.61 C663.45 -58.96, 579.16 -132.1, 481.62 -216.83 M755.4 13.96 C647.6 -74.64, 543.89 -166.83, 484.14 -219.95 M754.14 15.02 C695.48 -38.03, 634.95 -90.36, 484.19 -220.19 M760.72 15.78 C700.89 -37.05, 641.72 -89.65, 488.03 -223.79 M760.52 14.7 C660.24 -73.25, 561.73 -158.03, 487.09 -223.04 M768.13 13.92 C708.84 -34.86, 651.43 -85.63, 489.22 -225.41 M767.6 15.62 C669.74 -70.11, 572.38 -154.68, 490.88 -226.29 M772.66 16.03 C664.52 -78.61, 557.73 -174.43, 491.86 -228.77 M773.33 14.8 C669.51 -77.09, 565.62 -167.12, 492.41 -228.12 M779.77 16.33 C696.64 -54.61, 616.07 -125.09, 495.97 -230.47 M780.52 16.17 C711.78 -44.94, 642.65 -105.06, 496.17 -230.87 M786.79 15.94 C710.31 -51.85, 634.77 -116.32, 499.79 -235 M786.15 14.98 C681.36 -75.15, 576.74 -165.32, 498.9 -234.64 M791.89 15.39 C723.86 -45, 656.18 -102.46, 502.94 -236.37 M792.27 15.46 C734.52 -33.53, 675.97 -84.65, 502.9 -236.12 M798.61 16.53 C738.44 -36.52, 677.1 -89.42, 505.96 -240.37 M798.91 15.74 C725.77 -46.94, 653.71 -110.89, 504.5 -239.35 M805.26 15.52 C735.01 -42.09, 665.65 -103.41, 508.79 -241.64 M805.22 15.74 C722.6 -54.44, 639.89 -126.48, 508.27 -242.27 M811.06 17.19 C719.25 -61.16, 627.9 -141.59, 510.22 -245.57 M811.02 16.24 C708.61 -70.86, 606.73 -159.83, 510.89 -245.29 M816 15.68 C715.78 -72.06, 613.27 -161.58, 513.47 -248.09 M816.5 16.29 C699.31 -86.17, 584.14 -186.38, 514.12 -247.28 M820.42 13.8 C742.14 -55.52, 663.06 -122.43, 516.33 -250.41 M819.8 13.07 C742.46 -53.36, 664.46 -121.49, 516.94 -250.47 M815.97 4.22 C702.52 -93.4, 590.79 -190.7, 521.42 -252.68 M815.65 4.1 C710.03 -88.03, 602.4 -181.35, 520.31 -253.14 M810.87 -3.72 C726.48 -78.94, 641.88 -152.51, 524.04 -254.92 M811.97 -4.04 C749.44 -60.32, 686.11 -115.24, 522.82 -255.54 M808.21 -13.43 C735.3 -75.25, 661.2 -137.83, 526.85 -257.75 M807.48 -13.31 C715.56 -93.1, 624.23 -172.58, 526.61 -258.41 M803.43 -21.79 C729.04 -87.89, 654.8 -152.25, 527.79 -260.71 M804.03 -21.84 C710.54 -104.5, 616.79 -186.57, 529.48 -260.77 M799.57 -31.31 C729.23 -87.93, 660.02 -147.96, 533.14 -263.16 M799.81 -30.7 C709.64 -107.07, 620.74 -185.61, 531.93 -263.24 M795.4 -38.57 C702.43 -120.82, 609.12 -201.83, 534.59 -267.44 M796.11 -39.94 C704.39 -120.63, 613.4 -201.07, 535.58 -266.89 M790.71 -47.18 C712.37 -119.33, 631.18 -190.52, 537.64 -269.8 M792.5 -48 C717.05 -113.51, 642.58 -178.93, 538.83 -269.21 M788.02 -57.77 C698.69 -135.5, 609.67 -212.66, 541.23 -270.95 M787.16 -57.21 C721.91 -114.4, 654.57 -171.86, 540.33 -271.63 M784.92 -65.07 C694.41 -142.42, 603.34 -220.65, 545.7 -272.73 M783.87 -66.83 C719.56 -120.1, 656.01 -177.1, 543.85 -274.64 M779.56 -75.48 C732.63 -113.28, 687.87 -154.75, 547.47 -278.19 M779.02 -75.06 C705.05 -140.5, 630.69 -205.83, 547.34 -276.97 M774.7 -85.02 C726.21 -126.17, 677.44 -168.53, 550.41 -279.04 M774.62 -84.33 C693.3 -154.6, 610.37 -226.03, 550.02 -278.99 M771.64 -91.99 C723.05 -135.14, 676.26 -178.09, 552.28 -281.25 M771.28 -92.99 C722.08 -135.66, 672.61 -179.43, 552.76 -281.87 M768.74 -99.85 C721.93 -140.07, 676.36 -179.21, 555.94 -284.43 M767.96 -101.42 C714.23 -148.8, 658.9 -196.79, 556.9 -285.48 M763.79 -109.78 C705.19 -160.61, 645.42 -214.68, 558.42 -286.9 M763.21 -110.48 C698.42 -167.17, 632.74 -224.56, 558.51 -288.59 M759.7 -119.67 C717.22 -157.76, 674.33 -192.32, 562.41 -291.47 M759.04 -118.5 C710.2 -160.93, 659.26 -204.48, 562.14 -289.87 M754.75 -128.56 C695.86 -178.9, 635.59 -229.1, 565.08 -292.12 M754.59 -127.37 C712.05 -166.73, 666.81 -206.11, 564.58 -292.87 M750.66 -136.27 C707.14 -174.03, 666.69 -209.92, 569.97 -296.11 M750.72 -136.71 C711.02 -172.67, 669.01 -207.69, 568.61 -296.32 M745.58 -145.41 C696.4 -188.56, 645.86 -231.8, 572.17 -297.2 M746.63 -145.53 C679.17 -204.37, 609.71 -264.31, 571.17 -298.59 M741.78 -155.09 C680.05 -207.77, 620.19 -260.86, 573.65 -301.87 M742.2 -155.12 C695.01 -197.08, 644.86 -240.34, 574.22 -301.05 M738.43 -162.55 C697.2 -200.18, 654.26 -237.38, 578.71 -304.7 M737.87 -164.32 C686.79 -208.65, 634.46 -253.68, 577.83 -304.54 M736.75 -173.34 C693.63 -207.71, 653.89 -241.05, 582.05 -305.27 M734.43 -171.55 C685.65 -214.59, 635.7 -258.37, 580.82 -305.9 M729.11 -181.53 C701.28 -207.08, 670.54 -233.74, 584.7 -310.89 M731.72 -181.52 C676.78 -228.06, 622.52 -275.34, 582.35 -309.81 M727.24 -190.4 C689.19 -221.83, 650.22 -257.07, 584.59 -311.06 M726.27 -189.65 C692.71 -216.67, 659.89 -246.28, 586.56 -311.12 M724.43 -199.93 C682.98 -232.54, 643.86 -268.75, 588.52 -313.24 M721.63 -198.2 C674.13 -241.89, 626.78 -283.18, 589.31 -314.57 M716.58 -209.5 C680.18 -242.67, 642.44 -274.11, 592.73 -316.8 M718.35 -207.21 C680.74 -240.98, 641.27 -274.4, 591.9 -316.16 M713.7 -216.31 C683.32 -242.35, 655.81 -269.73, 594.37 -318.37 M713.69 -216.87 C672.64 -251.66, 633.31 -287.32, 595.94 -319.78 M709.26 -223.74 C669.22 -261.11, 631.28 -293.01, 596.88 -320.91 M710.51 -224.86 C679.72 -250.55, 650.84 -278.04, 599.24 -322.21 M708.24 -234.95 C683.43 -251.47, 662.18 -269.23, 601.23 -327.33 M705.83 -233.97 C680.21 -257.43, 655.32 -280.02, 600.59 -325.81 M701.41 -243.89 C669.4 -274.1, 632.24 -302.7, 603.28 -329.46 M702.68 -242.14 C664.1 -275.77, 626.82 -310.91, 603.68 -327.51 M697.17 -249.6 C679.37 -269.26, 663.74 -284.06, 605.09 -329.72 M698.46 -250.83 C679.78 -268.31, 660.4 -285.58, 607.85 -331.51 M695.88 -259.23 C662.69 -287.18, 632.96 -314.39, 612.21 -334.07 M694.75 -261.02 C676.45 -275.38, 659.13 -290.88, 610.04 -334.29 M689.89 -269.6 C665.22 -290.68, 639.21 -314.84, 613 -337.66 M689.95 -268.86 C668.44 -287.55, 647.64 -305.97, 613.54 -337.24 M684.85 -279.6 C662.13 -299.38, 638.04 -321.34, 615.96 -337.85 M686.09 -279.01 C659.39 -300.68, 632.62 -324.39, 615.9 -337.75 M683.07 -288.46 C669.42 -298.04, 655.34 -310.42, 617.03 -339.81 M680.7 -287.05 C662.9 -304.9, 643.32 -321.08, 619.72 -341.81 M676.76 -296.05 C663.14 -308.83, 652.88 -320.38, 620.88 -345.5 M677.59 -296.75 C662.85 -309.22, 647.47 -321.98, 622.55 -343.09 M672.18 -304.56 C662.72 -315.25, 649.51 -326.7, 624.27 -347.35 M673.56 -303.78 C663.48 -312.91, 653.77 -322.28, 625.68 -347.53 M671.85 -313.46 C658.73 -321.32, 649.15 -330.48, 629.32 -349.21 M670.1 -313.69 C655.66 -325.43, 641.71 -337.9, 628.02 -348.48 M666.45 -321.8 C653.22 -334.35, 640.61 -346.96, 630.85 -352 M665.87 -322.33 C652.86 -332.83, 639.77 -344.49, 630.93 -353.2 M661.1 -331.24 C654.82 -338.03, 645.73 -344.66, 632.93 -355.37 M662.44 -331.76 C652.87 -339.22, 642.14 -346.66, 633.32 -354.73 M655.41 -339.63 C651.09 -344.1, 649.05 -346.32, 635.95 -356.01 M656.96 -340.02 C653.94 -343.89, 648.27 -348.47, 636.24 -357.1 M652.86 -349.33 C648.34 -354.8, 643.8 -357.08, 637.85 -360.02 M652.97 -348.46 C648.51 -352.22, 643.55 -355.97, 640.38 -361.61 M648.59 -357.86 C646.9 -359.57, 645.14 -360.2, 643.32 -362.8 M648.7 -357.92 C646.89 -360.43, 644.06 -362.38, 642.86 -363.53" stroke="#82c91e" stroke-width="0.5" fill="none"></path><path d="M0.26 -0.37 C83.66 -72, 166.24 -146.72, 282.87 -251.52 M-0.25 -0.47 C63.18 -54.27, 125.22 -108.85, 284.05 -251.02 M283.17 -249.54 C313.27 -232.45, 344.16 -210.41, 417.92 -158.48 M283.38 -250.97 C328.52 -219.26, 372.53 -188.33, 417.39 -159.27 M418.56 -160.9 C473.35 -209.92, 525.9 -257.58, 643.38 -362.51 M417.99 -159.41 C469.71 -208.83, 521.57 -255.34, 643.9 -363.42 M643.74 -362.43 C707.46 -221.44, 772.39 -80.07, 818.5 15.12 M643.29 -363.14 C698.6 -244.51, 753.12 -125.64, 817.68 16.21 M817.45 15.75 C645.5 15.25, 472.06 11.55, -0.27 0.09 M817.93 15.97 C504.72 8.89, 191.88 2.35, 0.31 0.11 M0 0 C0 0, 0 0, 0 0 M0 0 C0 0, 0 0, 0 0" stroke="#000000" stroke-width="1" fill="none"></path></g></g><mask></mask><g stroke-linecap="round" transform="translate(160.27063401188627 144.89042882112335) rotate(0 67.162957159168 67.162957159168)"><path d="M10.75 31.87 C10.75 31.87, 10.75 31.87, 10.75 31.87 M10.75 31.87 C10.75 31.87, 10.75 31.87, 10.75 31.87 M8.16 41.5 C15.12 33.81, 25.2 23.68, 33.25 10.85 M7.84 42.38 C15.29 31.52, 24.76 20.37, 33.5 10.4 M3.97 53.42 C16.51 37.25, 27.41 25.11, 41.33 10.22 M4 50.65 C16.48 38.07, 26.53 26.28, 42.31 7.62 M-0.55 62.04 C13.85 44.67, 26.33 32.7, 48.08 6.31 M2.4 60.11 C11.87 50.19, 21.53 38.83, 49.53 7.45 M0.5 68.36 C15.51 48.77, 32.94 33.84, 60.31 0.54 M2.32 67.07 C16.8 49.18, 30.22 34.36, 58.63 -0.25 M4.03 71.58 C24.22 49.69, 44.37 26.98, 65.09 1.56 M2.47 71.83 C25.27 46.23, 47.16 19.36, 64.57 1.18 M2.42 76.46 C19.81 58.75, 33.82 39.62, 70.59 0.91 M3.07 77.12 C21.22 56.69, 37.19 37.39, 69.22 0.81 M3.54 82.32 C18.97 62.79, 34.42 43.03, 72.34 2.65 M4.36 82.98 C22.45 59.18, 42.36 38.44, 73.13 2.74 M5.42 89.64 C29.94 59.89, 52.54 30.49, 78.53 2.75 M4.83 88.39 C23.45 63.73, 44.29 41.97, 79.38 1.45 M6.17 90.85 C27.47 69.53, 47.42 44.91, 81.31 2.52 M5.66 91.97 C23.57 71, 41.74 51.6, 82.38 4.21 M7.41 96.71 C28.78 73.44, 46.24 51.34, 90.03 4.03 M9.65 95.38 C28.62 71.6, 48.41 48.82, 87.66 4.44 M11.49 99.26 C31.51 72.12, 56.23 47.69, 90.68 4.6 M11.02 98.22 C27.47 78.22, 43.83 60.33, 90.86 7.21 M12.15 102.5 C38.01 74.57, 62.98 46.09, 94.36 7.93 M13.58 101.69 C40.83 71.15, 68.41 39.03, 94.7 8.29 M16.5 105.1 C39 75.3, 63.87 47.53, 98.1 9.56 M15.23 105.22 C34.15 82.87, 53.26 62.57, 99.32 10.64 M17.68 109.31 C41.26 82.12, 66.92 54.3, 103.42 10.83 M16.18 110.4 C42.14 81.51, 67.36 53.96, 101.43 12.28 M19.5 112.65 C52.23 77.8, 83.87 42.29, 103.62 16.27 M20.09 112.66 C49.62 80.22, 80.72 44.38, 105.08 14.66 M20.42 117.63 C49.3 82.04, 82.28 49.3, 107.16 15.84 M21.59 117.86 C42.68 90.95, 64.94 65.4, 109.59 16.92 M23.48 117.88 C44.4 97.3, 63.63 77.5, 112.95 18.32 M24.78 118.51 C50.76 91.03, 75.82 62.36, 112.35 18.19 M29.07 119.66 C57.77 89.7, 83.64 56.68, 115.62 22.79 M27.46 122.16 C45.8 100.61, 63.29 78.7, 114.65 21.05 M32.15 124.75 C53.08 101.47, 72.03 75.33, 117.55 24.28 M30.92 124.28 C51.15 100.35, 70.22 77.66, 117.26 24.17 M36.19 125.37 C69.63 88.54, 102.53 51.34, 118.83 27.99 M35.44 126.19 C57.61 100.38, 80.86 72.18, 120.84 28.49 M40.59 126.42 C64.4 99.38, 92.27 67.87, 121.89 30.18 M38.2 127.22 C69.19 92.15, 99.4 57.26, 122.18 31.07 M39.94 130.9 C63.86 107.39, 83.8 83.09, 123.51 35.19 M42.04 131.11 C62.92 105.91, 84.46 82.9, 124.73 36.07 M45.27 131.31 C77.9 97.39, 110.4 58.64, 126.78 40.03 M45.37 131.38 C60.95 112.91, 78.3 93.67, 126.03 38.35 M50.81 132.38 C77.59 102.42, 102.27 71.55, 128.41 40.63 M50.3 133.05 C71.1 108.6, 91.88 84.74, 129.64 41.65 M55.93 134.25 C80.35 105.14, 104.29 78.87, 130.73 44.53 M55.2 133.76 C73.55 112.92, 92.37 91.34, 130.61 46.24 M61.74 132.4 C86.46 102.4, 112.61 68.85, 130.36 51.54 M60.85 132.69 C83.66 108.68, 106.04 81.47, 132.68 51.6 M65.11 132.83 C89.07 106.5, 111.31 83.92, 133.38 58.66 M64.94 133.7 C81.98 113.01, 101.01 91.88, 133.05 56.27 M72.65 135.02 C87.19 112.55, 104.44 94.89, 133.49 59.81 M71.59 133.24 C91.58 111.12, 111.55 87.67, 132.97 61.56 M77.35 132.61 C92.52 117.37, 108.36 98, 132.58 66.28 M76.54 133.02 C93.4 113.6, 110.59 92.99, 133.92 66.94 M82.49 129.54 C100.6 110.49, 119.3 89.78, 136 71.85 M84.6 131.14 C99.19 114.79, 113.35 96.24, 133.38 73.18 M89.81 130.57 C103.98 112.67, 117.5 96.22, 135.94 78.79 M90.3 128.54 C100.84 116.74, 113.24 105.1, 135.74 77.28 M99.93 128.18 C104.54 116.44, 113.83 109.55, 133.47 85.54 M97.89 126.85 C110.88 111.07, 122.86 97.23, 132.87 88.14 M103.83 125.24 C110.41 117.96, 116.11 114.46, 128.94 99.33 M105.36 125.13 C114.76 114.04, 124.19 103.91, 128.09 98.14 M19.73 116.01 C19.73 116.01, 19.73 116.01, 19.73 116.01 M19.73 116.01 C19.73 116.01, 19.73 116.01, 19.73 116.01 M41.37 126.19 C29.77 121.19, 21.08 112.28, 14.75 106.6 M39.21 128.29 C29.65 120.14, 20.42 112.39, 12.46 104.98 M45.05 128.73 C37.15 119.54, 23.63 107.93, 5.76 95.99 M47.18 128.71 C32.1 116.64, 18.11 104.59, 6.66 94.2 M51.38 129.33 C42.93 118.83, 32.36 107.9, 7.66 86.47 M53.04 128.4 C35.46 114.62, 19.53 98.11, 6.66 88.47 M57.89 129.85 C43.47 114.09, 23.01 97.34, 3.14 82.98 M59.04 128.75 C48.31 120.23, 36.38 108.92, 4.78 80.87 M64.84 130.28 C45.09 111.59, 24.11 92.35, 2.24 77.67 M65.74 129.08 C47.1 114.25, 29.95 98.47, 4.99 75.17 M76.33 131.69 C60.93 119.95, 43.06 107.06, 2.13 69.04 M74.6 132.54 C57.02 117.12, 39.77 101.39, 3.22 70.99 M82.04 130.13 C58.27 113.63, 33.3 91.9, 2.66 63.57 M80.26 131.98 C58.86 111.89, 36.66 94.3, 2.52 64.36 M84.39 131.32 C61.04 109.94, 36.47 89.61, 4.94 60.8 M85.24 129.61 C62.59 109.83, 40.76 90.96, 2.08 58.76 M88.29 128.55 C56.75 99.48, 26.06 72.05, 2.14 54.27 M90.23 128.87 C61.17 104.83, 32.8 80.91, 3.62 55.06 M93.71 125.69 C74.98 110.68, 55.06 95.5, 6.32 49.31 M94.17 126.42 C71.99 108.12, 50.4 89.55, 4.71 51.3 M96.99 124.17 C63.49 97.02, 30.73 67.18, 6.2 46.67 M98.1 127.05 C75.51 104.7, 50.18 84.58, 6.12 45.18 M102.16 125.35 C68.72 97.46, 38.77 66.2, 9.78 43.5 M102.03 125.06 C68.62 95.37, 35.94 66.54, 8.94 43.17 M104.77 120.21 C81.14 98.21, 56.27 76.52, 10.62 38.49 M105.25 121.9 C70.66 90, 33.89 57.03, 8.35 38.46 M107.65 119.68 C86.55 98.8, 63.83 82.67, 11.63 33.42 M107.69 119.49 C73.62 88.84, 38.13 58.48, 10.06 34.61 M113.05 116.99 C90.85 100.61, 71.42 81.98, 12.2 30.93 M110.54 116.52 C90.25 96.67, 68.6 79.39, 12.85 30.18 M114.39 114.1 C91.81 92.66, 66.99 73.37, 14.7 27.52 M113.53 113.8 C87.43 90.78, 59.62 65.45, 15.65 27.79 M117.07 112.6 C83.08 82.19, 49.41 51.53, 17.82 25.26 M116.35 111.26 C77.88 77.32, 38.89 42.4, 18.42 24.74 M120.84 106.87 C82.14 72.84, 41.16 41.38, 21.36 22.78 M120.42 107.93 C94.15 86.52, 69.91 64.98, 19.47 21.98 M123.56 105.64 C90.01 73.92, 56.44 45.11, 23.59 18.96 M123.28 103.58 C90.85 77.11, 59.52 51.34, 24.33 18.78 M123.52 101.09 C93.15 78.03, 62.53 49.54, 25.5 15.98 M124.42 100.71 C96.42 75.7, 67.43 50.28, 26.55 15.76 M126.78 98.51 C96.81 71.39, 68.12 47.26, 28.68 10.96 M127.14 98.25 C96.41 70.55, 63.89 44.32, 29.08 13.47 M129.96 93.32 C108.63 77.4, 84.69 57.91, 31.55 11.03 M128.86 93.49 C90.74 61.22, 53.8 29.49, 31.11 9.44 M127.54 88.75 C105.77 67.56, 80.84 48.44, 35.52 5.65 M129 89.76 C97.4 62.35, 66.34 34.62, 33.67 7.45 M132.47 86.87 C110.66 68.46, 91.59 51.25, 37.72 5.61 M131.05 86.41 C101.93 60.19, 73.3 34.51, 38.93 4.59 M133.18 80.32 C109.42 61.31, 85.61 43.7, 44.62 3.48 M132.17 80.53 C99.71 54.19, 66.48 25.09, 43.34 4.51 M131.42 75.91 C100.53 47.18, 70.25 22.02, 48.77 0.56 M132.53 77.51 C112.82 58.58, 90.68 39.98, 46.95 2.51 M135.32 74.36 C113.12 55.09, 91.64 34.25, 53.2 1.19 M134.92 72.74 C112.89 56.18, 91.75 36.11, 51.28 0.72 M132.92 66.71 C115.89 51.48, 94.63 35.51, 56.44 0.53 M133.82 66.98 C116.57 52.49, 99.53 38.41, 56.89 -0.12 M131.82 63.2 C113.41 45.87, 94.68 29.09, 60.32 -1.13 M133.5 61.28 C109.09 39.44, 85.17 18.22, 60.71 -1.41 M131.89 57.06 C110.17 36.01, 88.96 16.75, 69.81 -0.72 M132.41 55.6 C108.24 34.44, 84.7 11.95, 68.44 -1.01 M134.39 48.18 C110.65 31.22, 91.57 14.4, 74.81 0.73 M132.69 50.6 C112.91 33.44, 94.37 17.25, 75.82 0.8 M132.77 44.14 C119.77 32.02, 109.52 21.27, 84.22 1.71 M130.56 43.55 C113.24 27.63, 96.12 12.47, 83.27 0.88 M121.69 31.96 C110.49 21.4, 101.14 12.37, 89 1.91 M123.91 30.04 C113.71 23.82, 104.76 14.55, 90.49 1.96" stroke="#ffec99" stroke-width="0.5" fill="none"></path><path d="M88.34 3.69 C97.42 5.68, 106.79 12.43, 113.71 19.21 C120.64 25.99, 126.66 35.02, 129.9 44.39 C133.14 53.77, 134.18 65.59, 133.14 75.46 C132.1 85.33, 128.64 95.48, 123.67 103.61 C118.7 111.74, 111.34 119.33, 103.34 124.25 C95.34 129.16, 85.47 131.96, 75.67 133.1 C65.86 134.24, 53.89 133.98, 44.52 131.09 C35.15 128.2, 26.21 122.75, 19.46 115.77 C12.71 108.78, 7.06 98.43, 4.03 89.19 C0.99 79.95, 0.18 69.85, 1.25 60.35 C2.32 50.85, 5.4 40.67, 10.47 32.21 C15.53 23.74, 23.52 14.93, 31.66 9.56 C39.8 4.18, 48.87 0.6, 59.31 -0.04 C69.76 -0.67, 87.79 4.42, 94.34 5.74 C100.9 7.06, 99.04 6.9, 98.65 7.89 M83.22 2.88 C92.39 4.27, 100.38 9.55, 107.75 15.25 C115.12 20.94, 122.87 28.39, 127.44 37.05 C132.01 45.72, 135.03 57.54, 135.19 67.23 C135.35 76.93, 132.72 86.29, 128.42 95.21 C124.11 104.13, 116.87 114.4, 109.38 120.74 C101.88 127.08, 92.94 131.46, 83.45 133.26 C73.96 135.05, 62.34 133.68, 52.46 131.5 C42.57 129.33, 31.54 126.16, 24.15 120.22 C16.75 114.29, 11.93 104.87, 8.09 95.9 C4.25 86.92, 1.19 75.91, 1.13 66.4 C1.07 56.89, 3.54 47.48, 7.73 38.83 C11.93 30.19, 18.84 20.89, 26.27 14.54 C33.7 8.18, 43.2 2.69, 52.29 0.7 C61.39 -1.3, 76.18 2.17, 80.85 2.59 C85.52 3, 80.24 2.16, 80.31 3.17" stroke="#000000" stroke-width="1" fill="none"></path></g><g stroke-linecap="round" transform="translate(662.5 97.5) rotate(0 131.25 56.25)"><path d="M0 0 C0 0, 0 0, 0 0 M0 0 C0 0, 0 0, 0 0 M1.47 13.15 C2.42 7.99, 6.45 6, 11.44 1.04 M0.83 12.52 C2.88 8.88, 5.23 6.8, 11.34 -0.53 M2.01 24.77 C7.36 19.41, 12.83 9.85, 22.96 -1.28 M-0.67 24.38 C3.71 19.09, 8.7 13.62, 20.27 0.8 M-0.44 35.83 C11.16 21.09, 26.78 7.55, 31.5 -0.77 M-0.32 36 C9.53 25.26, 19.64 12.95, 32.65 0.19 M-1.37 48.58 C12.53 32.93, 26.62 17.17, 43.08 -1.11 M-1.12 49.53 C13.56 31.55, 27.4 16.16, 42.37 -0.17 M-1.33 60.31 C12.87 45.26, 27.46 29.68, 54.59 -2.01 M-0.02 60.69 C15.24 41.81, 31.82 23.63, 53.92 0.39 M-1.66 72.25 C22.59 47.42, 45.91 20.21, 65.26 -1.27 M-0.3 72.57 C22.34 48.69, 44.41 22.41, 64.4 0.56 M2.2 84.05 C26.39 54.87, 54.97 23.19, 74.04 0.88 M-0.39 85.97 C24.72 56.02, 49.16 27.43, 74.36 -0.34 M1.33 98.19 C24.53 72.39, 48.28 42.26, 86.87 -0.49 M0.33 96.89 C18.91 74.87, 38.89 52.33, 85.64 -0.66 M-0.71 110.68 C28.36 78.81, 53.55 48.56, 94.01 0.65 M-0.02 109.12 C33.86 71.42, 66.95 33.93, 96.23 0.21 M6.05 117.98 C35.8 81.79, 67.6 49.15, 105.35 -1.03 M3.73 116.13 C37.48 78.54, 69.65 40.51, 106.09 -0.48 M16.12 116.72 C54.49 74.78, 94.26 30.1, 115.05 2.26 M14.32 116.81 C37.19 92.73, 57.17 67.71, 115.36 0.53 M25.21 116.65 C60.36 74.63, 99.44 32.21, 127.5 2.06 M26.37 117.37 C48.13 91.68, 69.92 66.46, 126.82 1.22 M34.7 115.29 C76.65 73.61, 116.43 26.08, 138.68 1.9 M37.32 115.93 C70.42 78.41, 105.43 37.26, 136.79 -0.62 M47.02 116.37 C83.3 77.74, 117.54 33.2, 150.12 -0.04 M46.38 115.93 C72.61 88.39, 96.09 60.47, 147.61 -0.68 M56.99 115.5 C87.9 82.65, 115.75 47.81, 157.52 1.49 M58.36 115.83 C93.78 78.37, 127.86 37.02, 157.83 -0.74 M69.1 115.92 C92.93 85.5, 120.17 59.8, 170.09 0.55 M68.53 115.75 C106.2 72.54, 144.81 27.85, 170.02 0.98 M80.88 118.12 C109.22 80.9, 140.04 46.9, 179.85 -0.35 M78.46 117.11 C110.39 80.53, 142.83 44.69, 179.67 0.48 M88.13 115.56 C127.17 70.96, 168.13 27.74, 188.95 -0.55 M88.85 117.31 C128.84 69.57, 168.94 23.62, 190.98 -0.38 M100.3 116.37 C133.79 73.2, 172.36 33.97, 202.98 -1.53 M99.38 115.37 C137.47 73.65, 173.48 32.14, 201.74 0.82 M109.78 115 C150.67 70.82, 190.53 25.84, 210.28 -1.26 M111.56 116.6 C138.9 86.76, 165.77 54.89, 211.17 0.67 M123.21 117.96 C143.84 91.64, 165.97 64.36, 223.27 1.51 M120.58 116.24 C150.87 82.18, 181.91 47.1, 222.72 0.6 M130.8 115.44 C154.56 90.61, 179.7 61.34, 233.71 0.96 M132.15 116.12 C166.53 75.43, 202.31 33.46, 233.98 0.57 M141.61 115.07 C183.79 71.99, 224.45 22.04, 242.09 -0.18 M142.31 116.34 C173.33 78.89, 206.22 42.46, 243.49 -0.34 M152.27 118.29 C191.18 72.53, 232.28 23.84, 252.88 -0.86 M153.67 116.64 C177.77 89.56, 202.55 60.1, 254.57 -0.21 M164.86 115.09 C203.11 73.27, 240.48 29.02, 262.56 -0.6 M163.85 117.09 C197 77.23, 231.98 38.24, 262.88 1.85 M172.3 116.17 C200.94 86.99, 227.94 56.4, 265.66 12.34 M174.38 117.2 C200.62 88.67, 225.13 59.55, 263 13.4 M184.31 115.63 C204.03 97.7, 219.64 75, 263.74 25.36 M185.2 116.64 C208.31 89.51, 230.45 62.73, 264.9 26.16 M196.05 115.42 C215.16 97.07, 230.92 74.89, 262.39 37.49 M194.81 116.59 C214.5 94.5, 231.81 72.73, 263.51 37.87 M207.41 115.01 C225.66 90.59, 247.97 66.44, 265.13 49.24 M206.13 117.43 C227.77 92.7, 247.79 68.27, 264.15 51.09 M216.37 115.11 C235.18 97.67, 248.58 78.36, 263.32 61.22 M217.36 117.38 C234.95 97.37, 252.25 76.62, 262.96 61.9 M226.27 115.29 C242.83 100.83, 255.56 84.94, 265.55 74.44 M227.8 116.16 C241.59 101.09, 255.85 84.33, 263.8 75.02 M239.15 117.77 C245.64 104.25, 255.98 96.86, 263.56 84.91 M238.7 115.65 C247.44 104.42, 256.95 93.68, 264.75 86.51 M247.03 116.99 C253.91 109.01, 260.45 105.14, 264.89 100.1 M249.1 117.54 C253.67 112.63, 257.25 106.46, 264.26 99.12" stroke="#99e9f2" stroke-width="1" fill="none"></path><path d="M1.36 -1.3 C64.49 -2.13, 125.74 -0.65, 263.97 0.39 M0.1 -0.78 C69.67 -1.32, 140.86 -1.1, 262.09 0.53 M261.15 1.39 C261.22 24.4, 263.93 48.74, 262.65 110.59 M263.47 -0.21 C263.81 38.04, 264.19 74.56, 262.15 111.86 M262.62 112.72 C177.04 111.71, 89.56 110.85, 0.52 111.4 M262.4 112.98 C201.7 110.9, 140.99 110.54, -0.19 112.12 M0.51 111.19 C0.46 76.49, 1.67 37, 1.55 0.38 M-0.82 113.14 C-0.55 68.67, -0.5 25.88, 0.37 -0.38" stroke="#1e1e1e" stroke-width="2" fill="none"></path></g><g stroke-linecap="round" transform="translate(702.1389323775816 126.72927910197177) rotate(0 27.094746557528737 27.09474655752871)"><path d="M20.65 0.42 C25.88 -0.94, 33.83 0.59, 39.05 3.39 C44.26 6.19, 49.55 12.05, 51.92 17.23 C54.28 22.42, 54.89 28.89, 53.22 34.5 C51.54 40.1, 46.67 47.57, 41.87 50.84 C37.06 54.11, 30.04 54.99, 24.39 54.12 C18.74 53.26, 11.88 49.99, 7.96 45.66 C4.04 41.33, 1.12 34.12, 0.86 28.15 C0.6 22.18, 2.05 14.68, 6.4 9.85 C10.75 5.03, 22.91 0.83, 26.96 -0.79 C31.01 -2.41, 30.87 -0.5, 30.7 0.15 M20.84 -0.5 C26.5 -1.54, 35.52 1.14, 40.96 4.29 C46.4 7.43, 51.61 12.89, 53.48 18.36 C55.35 23.84, 54.33 31.95, 52.18 37.11 C50.02 42.28, 45.42 46.52, 40.56 49.37 C35.7 52.21, 28.65 54.88, 23.03 54.19 C17.41 53.49, 10.48 49.71, 6.82 45.19 C3.16 40.67, 1.24 32.97, 1.09 27.05 C0.94 21.14, 2.28 14.33, 5.91 9.69 C9.54 5.06, 20.22 0.86, 22.87 -0.77 C25.51 -2.41, 21.71 -0.99, 21.77 -0.13" stroke="#000000" stroke-width="1" fill="none"></path></g><g transform="translate(776.6009051562634 130.75748773469013) rotate(0 56.45000076293945 23.793600795533848)"><text x="0" y="0" font-family="Virgil, Segoe UI Emoji" font-size="38.06976127285411px" fill="#000000" text-anchor="start" style="white-space: pre;" direction="ltr" dominant-baseline="text-before-edge">Office</text></g><g stroke-linecap="round"><g transform="translate(728.752113722809 168.6034865539582) rotate(334.90373538033356 0.33747338997469 -21.17137965713721)" fill-rule="evenodd"><path d="M-10.58 -38.34 C-10.58 -38.34, -10.58 -38.34, -10.58 -38.34 M-10.58 -38.34 C-10.58 -38.34, -10.58 -38.34, -10.58 -38.34 M-15.94 -21.13 C-12 -24, -6.92 -29.07, -1.25 -37.18 M-14.24 -21.78 C-11.01 -25.09, -5.96 -30.5, 0.11 -39.69 M-8.07 -15.79 C-6.43 -18.84, -0.26 -25.39, 10.92 -39.69 M-10.23 -14.42 C-3.01 -22.58, 5.98 -31.46, 9.96 -39.38 M-1.67 -9.81 C0.78 -16.42, 3.77 -18.82, 18.69 -33.26 M-2.99 -10.38 C2.62 -18.52, 10.09 -25.8, 17.27 -33.33 M4.84 -3.42 C10.75 -13.14, 15.3 -19.52, 20.06 -23.6 M2.53 -5.84 C8.08 -10.62, 11.47 -14.6, 18.96 -23.78" stroke="#1e1e1e" stroke-width="1" fill="none"></path><path d="M0.68 0.63 C2.09 0.21, 7.27 0.34, 8.63 -1.84 C9.99 -4.02, 7.39 -7.56, 8.83 -12.43 C10.27 -17.29, 17.5 -26.4, 17.29 -31.03 C17.07 -35.66, 12.35 -39.02, 7.53 -40.21 C2.71 -41.4, -7.54 -41.07, -11.61 -38.16 C-15.69 -35.25, -18.59 -27.51, -16.91 -22.74 C-15.23 -17.97, -4.38 -13.5, -1.53 -9.53 C1.31 -5.56, -0.05 -0.48, 0.17 1.09 M-0.42 -0.08 C0.78 -0.36, 6.12 1.54, 7.48 -0.28 C8.83 -2.1, 5.95 -6.05, 7.71 -11.01 C9.48 -15.97, 18.31 -24.72, 18.07 -30.04 C17.82 -35.37, 11.05 -41.42, 6.25 -42.94 C1.45 -44.45, -7 -42.3, -10.74 -39.11 C-14.48 -35.92, -17.64 -28.73, -16.19 -23.78 C-14.75 -18.82, -4.51 -13.4, -2.05 -9.39 C0.41 -5.38, -1.83 -1.19, -1.42 0.27" stroke="#000000" stroke-width="2" fill="none"></path></g></g><mask></mask><g stroke-linecap="round"><g transform="translate(740.1834868429208 162.95264719472425) rotate(327.423799657176 4.586379925393288 4.110249944418854)" fill-rule="evenodd"><path d="M0 0 C0 0, 0 0, 0 0 M0 0 C0 0, 0 0, 0 0 M1.66 9.23 C4.25 7.66, 7.49 3.34, 8.94 2.51 M2.62 10.02 C4.84 6.98, 7.59 3.49, 9.04 1.79" stroke="#1e1e1e" stroke-width="1" fill="none"></path><path d="M0.04 -0.49 C0.38 3.84, 0.26 6.48, 1.29 7.96 M0.35 0.34 C0.24 3.13, 0.27 5.43, 0.92 9.11 M0.01 9.38 C4.71 8.92, 7.24 8.12, 9.53 7.62 M0.28 8.8 C4.09 8.38, 6.63 7.24, 8.46 7.49 M8.8 7.59 C9.09 4.57, 7.15 3.07, 7.22 -1.16 M8.63 7.66 C8.44 5.69, 7.84 3.32, 6.96 -0.67 M6.99 -0.25 C5.2 -0.7, 2.37 -0.7, 0.46 0.3 M7.11 -0.35 C5.98 -0.3, 3.64 -0.65, -0.36 -0.2 M0 0 C0 0, 0 0, 0 0 M0 0 C0 0, 0 0, 0 0" stroke="#000000" stroke-width="2" fill="none"></path></g></g><mask></mask><g stroke-linecap="round"><g transform="translate(739.1561807672805 162.76074999136995) rotate(0 -2.825602195106086 -7.691192805042817)" fill-rule="evenodd"><path d="M-5.04 -16.31 C-5.04 -16.31, -5.04 -16.31, -5.04 -16.31 M-5.04 -16.31 C-5.04 -16.31, -5.04 -16.31, -5.04 -16.31 M-3.54 -5.92 C-2.35 -6.99, -1.67 -8.09, -1.09 -9.01 M-3.64 -5.67 C-2.95 -6.58, -2.28 -7.07, -0.91 -8.75" stroke="#1e1e1e" stroke-width="1" fill="none"></path><path d="M0.23 1.2 C-2.7 -2.56, -3.63 -7.12, -8.88 -10.8 M0.1 0.64 C-3.38 -3.82, -5.82 -6.93, -8.38 -11.49 M-8.44 -10.41 C-8.2 -11.71, -6.9 -12.9, -4.7 -16.56 M-8.77 -10.74 C-7.7 -13.19, -6.38 -14.76, -5.14 -16.29 M-3.77 -16.58 C-4.48 -10.19, -0.73 -8.58, 1.75 -0.05 M-5.18 -15.54 C-3.97 -13.38, -2.46 -9.66, 3.23 -0.72 M3.02 -1.5 C2.14 -1.21, 1.55 -0.52, -0.21 -0.18 M3.01 -1.33 C1.7 -1.02, 0.64 -0.45, -0.13 0.1" stroke="#000000" stroke-width="2" fill="none"></path></g></g><mask></mask><g stroke-linecap="round" transform="translate(663.75 236.25) rotate(0 131.25 56.25)"><path d="M0 0 C0 0, 0 0, 0 0 M0 0 C0 0, 0 0, 0 0 M0.98 11.3 C2.6 7.54, 6.76 4.45, 9.32 0.88 M0.67 12.02 C2.28 10, 5.12 6.15, 10 0.03 M-0.17 22.17 C7.39 16.75, 11.7 13.34, 20.37 0.94 M-0.28 23.68 C7.7 16.77, 13.46 9.42, 21.22 0.71 M-0.38 35.08 C10.99 24.79, 23.16 10.06, 33.52 1.8 M-0.67 37.69 C11.15 24.74, 21.88 12.1, 32.12 -0.23 M0.31 50.29 C14.85 32.33, 28.36 16.85, 44.49 1.6 M0.52 48.49 C11.12 36.02, 20.96 24.06, 41.99 -0.71 M-1.41 59.91 C19.11 39.53, 36.64 16.63, 54 -1.15 M0.57 61.05 C19.44 39.7, 37.78 17.21, 53.24 0.48 M-0.04 72.4 C16.24 55.05, 35.2 32.41, 62.76 -1.69 M0.61 72.5 C17.67 51.49, 36.66 29.17, 63.07 -0.61 M1.47 86.99 C19.49 62.1, 40.01 42.09, 72.83 -1.25 M0.83 84.51 C21.68 59.23, 45.64 32.61, 74.33 -0.49 M0.27 98.13 C16.87 79.88, 33.23 57.55, 86.85 -1.44 M0.63 98.75 C21.04 73.25, 43.5 47.36, 85.35 -0.51 M-0.35 110.18 C19.8 85.36, 40.62 65.16, 97.45 -0.52 M-0.87 109.49 C38.47 67.3, 76.94 23.68, 94.78 -0.27 M2.95 116.3 C40.32 76.72, 77.76 34.1, 106.48 0.29 M4.65 117.5 C28.33 88.89, 52.41 60.35, 105.44 0.09 M15.63 118.21 C56.19 69.85, 93.02 28.4, 117.7 1.23 M15.31 115.79 C47.22 78.78, 80.44 41.16, 116.51 1.27 M26.01 115.13 C56.99 81.61, 86.9 47.54, 126.73 -1.32 M25.26 117.49 C55.87 82.6, 85.54 48.55, 126.02 -0.54 M37.68 118.43 C60.49 87.28, 85.99 56.66, 138.39 1.39 M35.67 116.44 C58.1 90.15, 80.25 64.13, 137.69 -0.48 M48.93 118.03 C77.64 82.64, 106.51 49.13, 148.68 1.13 M47.69 116.66 C81 77.86, 115.41 39.72, 147.48 -0.39 M56.05 116.16 C89.87 81.61, 121.68 43.82, 157.4 1.11 M58.21 115.95 C88.62 80.63, 118.56 44.16, 159.72 0.63 M66.62 115 C103.64 72.28, 145.06 30.59, 167.48 1.73 M68.82 116.61 C90.38 93.27, 110.84 69.11, 168.99 -0.16 M78.89 118.38 C101.2 90.87, 123.27 65.99, 178.3 0.22 M79.56 117.05 C118.49 70.43, 157.94 25.98, 180.92 -0.47 M91.03 115.5 C115.13 89.96, 135.97 61.29, 188.97 0.33 M89.79 116.46 C111.5 91.77, 131.79 67.18, 190.08 0.7 M100.44 114.55 C138.46 72.16, 179.25 27.63, 199.68 0.04 M100.06 116.47 C138.47 70.92, 178.79 27.16, 200.82 -0.33 M109.12 114.48 C143.71 73.42, 181.32 36.04, 211 1.22 M110.93 115.82 C132.09 91.37, 155.62 65.08, 211.05 -0.22 M122.93 114.6 C141.6 91.4, 164.31 64.17, 221.19 1.35 M120.82 115.99 C143.08 90.24, 167.9 63.39, 223.19 0 M132.91 114.34 C159.57 81.32, 191.11 51.26, 233.49 -0.83 M132.84 115.86 C165.98 75.86, 201.72 36.01, 233.91 0.65 M142.63 114.9 C173.46 79.07, 206.64 42.38, 245.48 -1.6 M142.66 115.38 C176.32 77.29, 208.75 38.31, 243.04 -0.01 M152.78 115.72 C187.28 75.22, 223.15 37.06, 256.35 1.42 M152.68 116.97 C175.78 90.77, 199.6 62.32, 255.41 -0.07 M163.19 117.09 C204.18 74.29, 239.9 28.84, 262.93 2.43 M162.5 116.18 C195.63 77.78, 227.84 40.9, 264.32 2.14 M174.11 116.44 C203.67 80.31, 236.5 42.94, 265.73 15.24 M173.82 116.83 C190.78 95.85, 210.89 75.75, 264.22 13.81 M184.25 114.97 C215.94 81.07, 244.16 46.39, 265.9 25.75 M184.93 117.69 C211.55 87.16, 237.55 56.49, 263.11 25.09 M195.34 118.09 C210.99 99.46, 229.17 78.52, 262.26 35.81 M194.89 115.88 C218.95 91.5, 240.92 65.43, 264.19 36.93 M207.52 117.11 C225.94 91.06, 249.29 66.48, 265.18 49.13 M205.35 116.5 C223.04 97.97, 238.52 78.36, 263.17 49.96 M216.61 116.94 C231.6 102.02, 241.76 86.53, 262.48 61.94 M217.42 117.33 C230.73 100.28, 245.7 84.1, 262.8 63.11 M225.41 117.77 C238.13 105.21, 244.93 95.65, 264.85 75.2 M227.51 116.44 C234.62 108.98, 243.15 99.23, 263.74 74.78 M237.07 114.74 C246.48 106.55, 253.84 99.73, 263.76 85.25 M238.16 116.89 C243.43 109.44, 250.42 104.16, 265.05 85.51 M250.34 115.68 C250.37 112.41, 254.9 109.99, 264.09 100.29 M247.91 116.37 C252.94 111.21, 258.51 103.55, 264.35 99.36" stroke="#99e9f2" stroke-width="1" fill="none"></path><path d="M1.34 1.2 C72.98 2.27, 145.58 0.61, 261.78 -0.59 M0.59 -0.17 C67.03 -1.29, 134.46 -0.8, 262.2 0.34 M261.66 1.41 C260.06 23.8, 261.56 49.36, 261.67 112.52 M263.39 0.08 C262.67 34.42, 261.75 68.53, 262.86 112.1 M262.02 112.99 C175.01 109.14, 88.23 110.25, -0.58 110.97 M262.79 113.25 C192.62 113.44, 122.3 113.21, -0.73 112.68 M0.14 111.87 C-0.59 74.7, -0.51 41.31, -0.34 -0.3 M0.6 112.43 C0.74 77.96, -0.37 42.1, -0.85 0.42" stroke="#1e1e1e" stroke-width="2" fill="none"></path></g><g stroke-linecap="round" transform="translate(705.8889323775816 265.47927910197177) rotate(0 27.094746557528737 27.094746557528765)"><path d="M31.16 0.01 C36.72 0.71, 43.37 4.93, 47.28 9.53 C51.2 14.14, 54.58 21.86, 54.66 27.65 C54.74 33.44, 51.6 39.89, 47.76 44.29 C43.91 48.7, 37.24 53.11, 31.61 54.1 C25.97 55.1, 18.86 53.35, 13.94 50.28 C9.03 47.21, 4.34 41.03, 2.13 35.67 C-0.09 30.31, -1.15 23.33, 0.65 18.12 C2.46 12.92, 7.34 7.26, 12.96 4.43 C18.59 1.6, 30.19 1.25, 34.42 1.13 C38.64 1.01, 38.4 3.27, 38.31 3.71 M29.11 0.13 C34.81 0.09, 41.68 3.14, 45.69 6.94 C49.7 10.74, 52.33 17.3, 53.17 22.91 C54.01 28.53, 53.57 35.76, 50.75 40.62 C47.93 45.48, 42.07 50.2, 36.24 52.07 C30.42 53.95, 21.2 53.8, 15.79 51.86 C10.38 49.92, 6.52 45.22, 3.76 40.43 C0.99 35.65, -1.82 29, -0.79 23.16 C0.24 17.31, 5.4 9.3, 9.93 5.36 C14.45 1.42, 23.42 0.21, 26.34 -0.47 C29.25 -1.15, 27.1 0.51, 27.42 1.28" stroke="#000000" stroke-width="1" fill="none"></path></g><g transform="translate(780.3509051562634 269.50748773469013) rotate(0 64.83333587646484 23.793600795533848)"><text x="0" y="0" font-family="Virgil, Segoe UI Emoji" font-size="38.06976127285411px" fill="#000000" text-anchor="start" style="white-space: pre;" direction="ltr" dominant-baseline="text-before-edge">Kitchen</text></g><g stroke-linecap="round"><g transform="translate(730.002113722809 307.3534865539582) rotate(334.90373538033356 0.12342405082949881 -20.203587375059215)" fill-rule="evenodd"><path d="M-10.58 -38.34 C-10.58 -38.34, -10.58 -38.34, -10.58 -38.34 M-10.58 -38.34 C-10.58 -38.34, -10.58 -38.34, -10.58 -38.34 M-15.77 -22.94 C-12.52 -25.27, -7.57 -27.92, 2.61 -37.99 M-15.95 -20.8 C-10.37 -26.95, -6.35 -31.39, 0.4 -39.84 M-9.99 -15.31 C-4.86 -20.03, 0.79 -23.92, 10.55 -36.82 M-10.51 -14.6 C-1.88 -23.68, 6.54 -32.34, 10.13 -39.16 M-4.21 -9.22 C3.74 -19.49, 8.94 -24.96, 18.49 -33.38 M-2.32 -10.33 C2.33 -15.95, 8.97 -22.69, 16.91 -34.15 M1.44 -4.13 C5.15 -11.12, 11.5 -12.47, 18.76 -24.06 M2.29 -5.2 C8.67 -11.86, 15.25 -19.39, 17.87 -22.48" stroke="#1e1e1e" stroke-width="1" fill="none"></path><path d="M-0.85 -0.54 C0.52 -0.77, 6.86 -0.51, 8.58 -2.42 C10.31 -4.34, 8.07 -7.28, 9.5 -12.05 C10.94 -16.83, 17.58 -26.12, 17.17 -31.06 C16.77 -36, 11.65 -40.53, 7.09 -41.7 C2.54 -42.86, -6.06 -41.2, -10.15 -38.06 C-14.25 -34.91, -18.6 -27.24, -17.5 -22.82 C-16.4 -18.41, -6.48 -15.28, -3.54 -11.56 C-0.6 -7.84, -0.59 -2.29, 0.14 -0.5 M0.91 1.78 C2.04 1.8, 6.1 1.48, 7.4 -1.17 C8.71 -3.81, 6.99 -9.28, 8.74 -14.1 C10.49 -18.92, 18.42 -25.52, 17.89 -30.1 C17.37 -34.67, 10.59 -40.07, 5.58 -41.54 C0.57 -43.02, -8.4 -41.9, -12.17 -38.95 C-15.95 -36.01, -18.88 -28.92, -17.09 -23.9 C-15.3 -18.88, -4.06 -13.06, -1.46 -8.82 C1.15 -4.59, -1.43 0.33, -1.46 1.51" stroke="#000000" stroke-width="2" fill="none"></path></g></g><mask></mask><g stroke-linecap="round"><g transform="translate(741.4334868429208 301.70264719472425) rotate(327.423799657176 4.278800206733962 4.054696576179481)" fill-rule="evenodd"><path d="M0 0 C0 0, 0 0, 0 0 M0 0 C0 0, 0 0, 0 0 M2.11 9.19 C4.81 5.96, 7.22 4.49, 9.24 1.96 M2.44 9.88 C4.35 7.33, 5.71 4.92, 9.7 1.54" stroke="#1e1e1e" stroke-width="1" fill="none"></path><path d="M-0.39 0 C0.49 2.65, 0.02 3.94, 0.2 9.02 M-0.38 -0.4 C0.19 2.63, 0.62 5.31, 0.5 8.73 M0.58 8.5 C3.15 8.92, 6.78 8.01, 8.95 6.86 M0.68 8.51 C2.55 8.19, 5.49 8.01, 8.48 7.67 M8.6 7.08 C8.85 5.32, 8.8 3.26, 7.27 -0.17 M8.94 6.97 C8.4 5.24, 8.02 2.86, 7 -0.91 M7.45 -0.61 C5.37 0.02, 2.17 0.38, 0.62 -0.23 M7.3 -0.49 C5.04 -0.12, 2.18 -0.45, 0.07 0.27 M0 0 C0 0, 0 0, 0 0 M0 0 C0 0, 0 0, 0 0" stroke="#000000" stroke-width="2" fill="none"></path></g></g><mask></mask><g stroke-linecap="round"><g transform="translate(740.4061807672805 301.51074999136995) rotate(0 -3.0953822059834977 -7.599410893546633)" fill-rule="evenodd"><path d="M-5.04 -16.31 C-5.04 -16.31, -5.04 -16.31, -5.04 -16.31 M-5.04 -16.31 C-5.04 -16.31, -5.04 -16.31, -5.04 -16.31 M-3.39 -5.51 C-2.65 -6.97, -1.36 -7.79, -1.22 -9.11 M-3.58 -5.82 C-2.97 -6.53, -2.08 -7.57, -0.81 -8.89" stroke="#1e1e1e" stroke-width="1" fill="none"></path><path d="M0.67 1.06 C-2.65 -2.98, -5.27 -5.25, -8.76 -11.49 M0.08 -0.3 C-2.52 -4.34, -6.19 -7.56, -8.59 -11.26 M-9.45 -10.38 C-7.86 -12.22, -6.67 -14.38, -5.25 -15.91 M-9.39 -11.06 C-7.99 -12.21, -7.37 -13.33, -5.25 -16.26 M-4.37 -15.53 C-2 -12.15, -2.12 -9.11, 2.19 -2.93 M-5.47 -16.09 C-2.83 -11.93, -0.7 -7.14, 3.26 -1.53 M3.1 -1.2 C2.02 -0.74, 1.5 -0.69, 0.12 -0.27 M2.93 -1.27 C1.79 -1.02, 0.93 -0.31, -0.14 -0.1" stroke="#000000" stroke-width="2" fill="none"></path></g></g><mask></mask><g stroke-linecap="round" transform="translate(658.75 381.25) rotate(0 131.25 56.25)"><path d="M0 0 C0 0, 0 0, 0 0 M0 0 C0 0, 0 0, 0 0 M-1.1 13.22 C1.84 9.84, 5.08 5.55, 11.84 0.48 M0.31 11.54 C3.26 7.88, 6.26 5.46, 11.34 -0.28 M-0.87 24.43 C8.3 18.71, 14.51 8.26, 22.92 -1.08 M1 24.27 C6.02 17.97, 12.45 10.86, 20.52 -0.3 M1.27 35.42 C9.42 25.12, 19.31 15.84, 32.61 0.52 M-1.2 35.93 C6.74 29.76, 14.18 21.95, 32.24 0.79 M-0.17 49.73 C11.18 36.05, 27.68 17.46, 44.35 -1.5 M-0.4 49.64 C12.69 35.93, 23.99 22.78, 42.96 0.17 M-0.76 60.5 C14.65 45.35, 30.49 27.17, 54.07 -0.61 M0.9 60.86 C17.76 39.73, 33.79 20.11, 52.51 -0.35 M1.87 73.05 C18.84 49.42, 36.42 29.72, 62.14 -1.54 M0.2 73.15 C17.07 53.64, 33.2 35.36, 62.95 -0.52 M-0.92 84.97 C27.17 54.89, 55.25 20.73, 75.13 1.06 M0.97 84.71 C18.58 63.33, 36.01 43.02, 74.22 -0.85 M0.2 96.14 C25.81 66.18, 50.83 37.96, 85.4 -2.09 M-0.39 98.02 C32.46 59.18, 65.73 21.82, 84.79 -0.72 M-1.12 109.07 C19.55 86.75, 40.55 60.73, 96.87 -1.58 M0.83 110.68 C31.98 73.15, 64.08 36.65, 95.32 0.43 M3.42 117.45 C33.09 85.09, 57.94 53.07, 104.68 -2 M3.85 117.44 C38.89 78.95, 71.33 38.22, 105.31 -1.03 M15.21 115.47 C57.46 71.62, 97.34 26.54, 116.2 0.14 M15.89 116.12 C39.42 88.96, 66.09 60.66, 116.1 0.64 M25.84 116.44 C64.89 69.2, 104.58 26.06, 125.36 0.66 M25.2 115.76 C47.92 92.5, 66.82 70.15, 126.17 -0.58 M37.9 117.02 C62.17 89.41, 86.83 60.59, 138.43 1.64 M36.84 117.3 C57.37 92.62, 78.53 68.65, 136.83 0.88 M48.73 117.3 C70.93 86.78, 99.39 57.42, 148.26 -0.4 M46.42 117.28 C70.04 91.82, 91.81 65.44, 147.53 1 M58.16 116.12 C89.29 81.62, 121.19 44.95, 159.39 -0.34 M56.8 115.66 C89.36 80.87, 122.11 43.84, 158.84 -0.24 M70.18 116.39 C93.37 86.65, 121.02 58.47, 167.69 -1.2 M67.68 116.67 C90.64 90.74, 113.35 66.02, 169.1 1.03 M80.6 116.38 C119.71 71.98, 159.19 25.36, 182.05 -0.8 M78.31 116.63 C102.32 88.2, 125.62 61.25, 180.12 -0.63 M90.77 115.07 C127.22 74.6, 164.83 28.44, 192.08 -0.46 M89.15 116.82 C126.95 72.25, 164.69 27.65, 189.76 -0.13 M99.27 115.43 C135 77.55, 169.45 39.69, 201.82 0.31 M100.46 115.34 C132.73 79.9, 164.91 42.91, 201.68 1.03 M111.56 117.76 C131.36 90.92, 151.83 68.57, 213.36 -0.88 M110.03 115.88 C139.02 83.37, 169.15 49.62, 211.91 0.56 M119.71 114.97 C145.6 84.82, 172.91 59.24, 220.59 0.05 M121.81 115.66 C148.39 82.97, 177.38 51.95, 222.55 0.28 M132.06 117.92 C168.43 78.31, 199.98 38.89, 232.88 0.88 M131.55 116.21 C160.89 83.98, 188.66 50.51, 232.44 -0.09 M140.92 114.7 C171.25 83.65, 200.98 49.44, 244.73 -1.49 M143.47 115.21 C174.48 82.5, 205.09 47, 244.78 -0.06 M151.6 116.75 C190.62 74.21, 226.18 31.12, 255.5 0.19 M153.27 116.16 C180.84 85.35, 207 54.34, 253.8 -0.55 M164.71 115.12 C187.77 88.04, 215.83 57.79, 265.76 2.35 M163.39 117.09 C198.37 75.86, 234.74 34.09, 263.1 0.51 M173.94 118.28 C199.25 86.69, 228.76 58.6, 263.73 12.02 M174.74 116.06 C202.51 82.15, 232.91 49.73, 263.1 14.03 M184.34 116.48 C201.01 94.68, 218.95 74.66, 262.6 24.86 M184.01 115.87 C205.81 89.99, 228.89 63.99, 264.23 25.41 M193.37 115.78 C216 92.5, 237.2 68.1, 265.96 38.78 M194.59 117.74 C219.31 89.55, 243.01 61.69, 263.43 36.63 M206.56 117.35 C223.93 98.64, 239.54 77.96, 262.04 49.34 M205.31 117.11 C222.63 97.24, 240.04 77.78, 264.27 51.23 M215.25 114.82 C226.76 107.27, 237.26 94.75, 261.98 62.12 M216.07 116.5 C232.4 98.09, 247.66 80.14, 264.28 63.17 M228.24 117.56 C233.78 106.42, 244.63 96.12, 265.64 74.51 M226.47 117.36 C237.39 104.92, 245.47 94.76, 264.65 74.19 M237.47 116.01 C244.94 112.24, 247.39 105.89, 263.83 88.03 M237.49 116.89 C247.48 107.15, 255.26 96.65, 263.47 86.62 M249.73 116.98 C251.02 110.62, 255.09 108.68, 263.43 98.38 M248.15 115.91 C251.57 112.06, 256.76 106.78, 264.82 99" stroke="#99e9f2" stroke-width="1" fill="none"></path><path d="M0.39 -0.9 C95.96 -3.04, 193.77 -3.04, 262.84 -0.32 M0.07 -0.68 C82.6 -1.46, 165.06 -0.28, 263.12 -0.3 M263.07 1.45 C262.66 33.02, 261.44 71.05, 262.49 111.8 M261.73 0.28 C263.12 30.75, 262.24 63.03, 263.46 112.46 M261.07 112.52 C208.79 109.84, 152.89 109.39, 1.1 111.31 M262.88 112.53 C183.53 110.2, 103.77 110.3, 0.75 111.9 M0.25 111.41 C-0.19 69.56, 2.25 27.96, 1.16 -1.2 M-0.07 113.38 C-0.07 87.5, 0.27 61.13, 0.05 0.52" stroke="#1e1e1e" stroke-width="2" fill="none"></path></g><g stroke-linecap="round" transform="translate(700.8889323775816 410.47927910197177) rotate(0 27.094746557528737 27.094746557528765)"><path d="M16.02 2.26 C20.9 -0.19, 28.78 -0.52, 34.42 1.07 C40.06 2.66, 46.73 6.97, 49.87 11.79 C53 16.61, 53.93 24.15, 53.21 30.01 C52.49 35.87, 49.36 42.8, 45.52 46.95 C41.68 51.1, 35.9 54.5, 30.16 54.89 C24.41 55.27, 16.06 52.77, 11.03 49.26 C6.01 45.76, 1.35 39.38, -0.01 33.87 C-1.36 28.36, -0.13 21.7, 2.9 16.2 C5.92 10.71, 15.38 3.2, 18.14 0.92 C20.9 -1.37, 19.43 2.02, 19.49 2.52 M22.93 0.59 C28.45 -0.26, 37.86 0.5, 42.78 3.78 C47.7 7.06, 50.69 14.58, 52.45 20.26 C54.21 25.95, 55.8 32.93, 53.36 37.89 C50.91 42.85, 43.46 47.64, 37.79 50.01 C32.12 52.37, 24.75 52.98, 19.34 52.08 C13.92 51.18, 8.63 48.93, 5.3 44.62 C1.97 40.32, -0.83 32.11, -0.65 26.25 C-0.48 20.38, 2.42 13.78, 6.36 9.44 C10.29 5.09, 20.12 1.84, 22.97 0.2 C25.82 -1.45, 23.09 -0.88, 23.45 -0.43" stroke="#000000" stroke-width="1" fill="none"></path></g><g transform="translate(775.3509051562633 414.50748773469013) rotate(0 56.18333435058594 23.793600795533848)"><text x="0" y="0" font-family="Virgil, Segoe UI Emoji" font-size="38.06976127285411px" fill="#000000" text-anchor="start" style="white-space: pre;" direction="ltr" dominant-baseline="text-before-edge">Toilet</text></g><g stroke-linecap="round"><g transform="translate(725.0021137228091 452.3534865539582) rotate(334.90373538033356 -1.1056505907681071 -20.754828271365113)" fill-rule="evenodd"><path d="M-10.58 -38.34 C-10.58 -38.34, -10.58 -38.34, -10.58 -38.34 M-10.58 -38.34 C-10.58 -38.34, -10.58 -38.34, -10.58 -38.34 M-13.66 -22.51 C-11.12 -26.42, -8.69 -29.1, 0.78 -38.44 M-14.09 -21.77 C-10.97 -25.54, -9.01 -28.41, 0.16 -39.7 M-8.49 -16.22 C-6.57 -20.8, -2.17 -25.81, 12.44 -39.16 M-9.61 -14.49 C-1.93 -24.38, 4.39 -32.53, 11.42 -37.55 M-2.73 -9.9 C4.86 -18.69, 8.16 -25.28, 17.46 -33.49 M-2.11 -11.38 C4.33 -19.86, 11.94 -28.65, 18.11 -34.81 M4.59 -4.63 C8.95 -13.87, 16.6 -18.72, 17.58 -23.32 M3.96 -5.59 C6.55 -9.95, 10.03 -13.92, 19 -22.6" stroke="#1e1e1e" stroke-width="1" fill="none"></path><path d="M-1.03 0.26 C0.61 -0.05, 7.01 0.32, 8.79 -1.73 C10.56 -3.78, 8.35 -7.03, 9.62 -12.05 C10.89 -17.07, 16.71 -26.85, 16.38 -31.84 C16.05 -36.82, 12 -41.06, 7.62 -41.96 C3.24 -42.87, -5.95 -40.31, -9.91 -37.28 C-13.86 -34.25, -17.36 -28.07, -16.11 -23.78 C-14.86 -19.49, -5.08 -15.54, -2.4 -11.52 C0.27 -7.5, -0.62 -1.7, -0.08 0.34 M0.63 -0.66 C2.18 -0.76, 6.33 2.13, 7.71 -0.11 C9.1 -2.35, 7.42 -8.9, 8.92 -14.1 C10.41 -19.29, 17.1 -26.63, 16.68 -31.27 C16.26 -35.92, 11.13 -40.87, 6.38 -41.95 C1.63 -43.03, -7.63 -41.14, -11.8 -37.76 C-15.96 -34.39, -20.03 -26.54, -18.63 -21.7 C-17.23 -16.87, -6.19 -12.23, -3.38 -8.76 C-0.57 -5.29, -2.09 -2.43, -1.79 -0.86" stroke="#000000" stroke-width="2" fill="none"></path></g></g><mask></mask><g stroke-linecap="round"><g transform="translate(736.433486842921 446.70264719472425) rotate(327.423799657176 4.50060894489161 4.106352214570734)" fill-rule="evenodd"><path d="M0 0 C0 0, 0 0, 0 0 M0 0 C0 0, 0 0, 0 0 M2 9.85 C3.9 8.68, 5.62 5.57, 10.35 1.47 M2.04 9.84 C5.31 7.03, 7.3 3.53, 9.08 1.76" stroke="#1e1e1e" stroke-width="1" fill="none"></path><path d="M0.12 0.09 C0.54 1.94, -0.5 4.05, 0.01 9.2 M0.03 -0.39 C0.25 3.5, 0.8 7.01, 0.18 8.69 M0.35 8.83 C2.97 7.53, 7.21 8.01, 8.43 6.91 M0.16 8.32 C3.08 7.82, 6.42 8.1, 8.66 7.51 M8.87 6.89 C7.85 5.86, 8.15 3.98, 6.63 -0.87 M9.14 6.93 C8.18 5.55, 7.89 3.51, 7.07 -0.38 M6.81 -0.84 C5.03 -0.59, 4.64 -0.67, 0.45 -0.02 M7.48 -0.99 C5.01 -0.66, 3.44 0.08, 0.05 -0.15 M0 0 C0 0, 0 0, 0 0 M0 0 C0 0, 0 0, 0 0" stroke="#000000" stroke-width="2" fill="none"></path></g></g><mask></mask><g stroke-linecap="round"><g transform="translate(735.4061807672806 446.51074999136995) rotate(0 -3.471012371702386 -7.919234122514013)" fill-rule="evenodd"><path d="M-5.04 -16.31 C-5.04 -16.31, -5.04 -16.31, -5.04 -16.31 M-5.04 -16.31 C-5.04 -16.31, -5.04 -16.31, -5.04 -16.31 M-3.33 -5.69 C-2.97 -6.74, -2.17 -7.75, -0.78 -8.44 M-3.6 -5.89 C-2.86 -6.42, -2 -7.24, -1.11 -8.63" stroke="#1e1e1e" stroke-width="1" fill="none"></path><path d="M0.67 0.12 C-3.79 -2.53, -5.96 -5.32, -7.83 -9.84 M-0.05 0.2 C-1.88 -2.55, -5.37 -5.86, -8.47 -10.96 M-9.69 -11.46 C-7.86 -12.04, -7.33 -13.99, -4.84 -15.52 M-9.39 -11.25 C-7.88 -12.14, -6.89 -13.8, -5.43 -15.92 M-6.46 -15.33 C-3.31 -12.2, -3.06 -9.94, 1.55 0.2 M-5.74 -16.04 C-3.73 -13.23, -2.05 -8.88, 2.25 -0.9 M2.58 -1.41 C2.44 -1.18, 1.67 -0.74, -0.05 0.02 M2.75 -1.49 C1.97 -0.79, 0.87 -0.5, 0.07 0.02" stroke="#000000" stroke-width="2" fill="none"></path></g></g><mask></mask></svg>